<svg width="97" height="89" viewBox="0 0 97 89" fill="none" xmlns="http://www.w3.org/2000/svg">
<path d="M48.5 8.09097C26.2143 8.09097 8.08334 22.1531 8.08334 39.4314C8.08334 56.7137 26.19 70.7758 48.4434 70.7758C50.9493 70.7758 52.8569 70.5897 55.5527 70.3834C59.5944 73.5227 62.7226 76.0592 69.6379 78.3206C68.5871 72.7257 70.0946 69.1819 71.7153 65.1364C81.3466 59.0479 88.9167 51.3372 88.9167 39.4314C88.9167 22.1531 70.7858 8.09097 48.5 8.09097ZM48.5 0C75.2841 0 97 17.6505 97 39.4314C97 52.0937 89.6603 63.3645 78.2426 70.5776C74.7385 79.3441 82.6238 86.7919 90.9456 88.7904C78.477 89.8665 63.5593 86.8445 53.059 78.6888C24.444 80.8733 3.8147e-06 62.5554 3.8147e-06 39.4314C3.8147e-06 17.6505 21.7159 0 48.5 0V0Z" fill="#404B4B"/>
</svg>
