<?xml version="1.0" encoding="UTF-8" standalone="no"?>
<!DOCTYPE svg PUBLIC "-//W3C//DTD SVG 1.1//EN" "http://www.w3.org/Graphics/SVG/1.1/DTD/svg11.dtd">
<svg width="100%" height="100%" viewBox="0 0 1000 1000" version="1.1" xmlns="http://www.w3.org/2000/svg" xmlns:xlink="http://www.w3.org/1999/xlink" xml:space="preserve" xmlns:serif="http://www.serif.com/" style="fill-rule:evenodd;clip-rule:evenodd;stroke-linecap:round;stroke-linejoin:round;stroke-miterlimit:1.5;">
    <g>
        <g transform="matrix(1.35104,0.0203199,-0.0194096,1.29052,-195.091,-222.489)">
            <path d="M526.682,931.08L521.453,931.146C520.294,931.146 519.137,931.14 517.981,931.129C332.275,929.263 182.085,777.922 182.085,591.778C182.085,404.476 334.151,252.411 521.453,252.411C649.024,252.411 760.249,322.954 818.187,427.124C844.285,502.898 856.412,692.548 781.839,768.657C696.627,855.622 568.033,909.978 526.682,931.08Z" style="fill:rgb(246,154,48);"/>
        </g>
        <path d="M902.022,345.348C937.781,408.847 957.585,481.62 956.425,558.703C952.824,798.172 733.683,994.496 484.82,989.653C564.27,958.028 590.552,953.947 673.411,900.684C722.147,869.355 791.666,821.27 836.022,766.29C942.087,634.821 925.784,452.373 902.022,345.348Z" style="fill:rgb(241,141,25);"/>
        <path d="M901.73,345.514L901.709,345.417L901.681,345.417C901.644,345.262 901.736,345.105 901.897,345.048C902.058,344.992 902.241,345.052 902.326,345.191L902.326,345.177C920.534,377.36 934.647,411.936 943.998,448.261C953.101,483.622 957.689,520.64 957.18,558.715C956.506,607.066 947.077,653.677 930.365,697.233C905.011,763.313 862.931,822.363 809.505,869.869C723.374,946.459 607.701,993.023 484.801,990.638C484.332,990.629 483.935,990.29 483.851,989.829C483.767,989.367 484.02,988.911 484.456,988.737C535.39,968.466 564.46,959.522 600.616,941.665C620.81,931.691 643.216,918.936 672.886,899.867C702.837,880.622 740.642,855.044 775.625,825.428C797.494,806.915 818.261,786.825 835.305,765.712C854.292,742.207 869.345,717.059 881.153,691.01C899.733,650.018 910.253,606.78 915.275,564.113C924.87,482.595 914.416,403.17 901.74,345.558L901.718,345.519L901.73,345.514ZM902.833,347.521C915.518,405.005 925.915,483.587 916.662,564.274C911.75,607.113 901.304,650.546 882.733,691.724C870.914,717.931 855.795,743.218 836.739,766.869C819.637,788.081 798.801,808.273 776.85,826.874C741.812,856.566 703.939,882.206 673.936,901.5C644.192,920.624 621.729,933.417 601.483,943.42C566.392,960.758 537.968,969.709 489.802,988.737C610.34,989.799 723.578,943.644 808.223,868.426C861.439,821.137 903.332,762.35 928.669,696.581C945.37,653.228 954.894,606.842 955.67,558.692C956.305,520.739 951.841,483.826 942.895,448.543C933.887,413.013 920.334,379.136 902.833,347.521Z" style="fill:rgb(246,154,48);fill-opacity:0;"/>
        <g transform="matrix(2.50017,0,0,2.7991,-761.881,-543.382)">
            <ellipse cx="481.929" cy="380.437" rx="146.912" ry="128.467" style="fill:rgb(251,159,52);"/>
            <path d="M481.929,251.856C441.612,251.807 405.038,265.979 378.423,288.955C362.006,303.127 349.376,320.65 341.993,340.25C337.23,352.895 334.655,366.406 334.648,380.437C334.641,416.228 351.363,448.633 378.349,471.989C404.964,495.024 441.561,509.255 481.929,509.256C522.298,509.255 558.895,495.024 585.511,471.99C612.498,448.634 629.222,416.229 629.216,380.437C629.207,359.192 623.31,339.141 612.86,321.475C605.708,309.386 596.426,298.415 585.45,288.941C558.831,265.964 522.251,251.794 481.929,251.846L481.929,251.856ZM481.929,252.095C522.131,252.146 558.552,266.363 585.029,289.329C595.929,298.784 605.143,309.722 612.243,321.766C622.612,339.354 628.475,359.301 628.466,380.437C628.461,416.037 611.814,448.262 584.968,471.489C558.488,494.397 522.085,508.553 481.929,508.552C441.774,508.553 405.37,494.398 378.89,471.49C352.042,448.263 335.394,416.038 335.387,380.437C335.38,366.477 337.935,353.035 342.654,340.448C349.973,320.925 362.506,303.46 378.815,289.316C405.296,266.348 441.723,252.133 481.929,252.085L481.929,252.095Z" style="fill:rgb(246,154,48);fill-opacity:0;"/>
        </g>
        <g transform="matrix(1.65156,0,0,1.80867,-400.867,-248.069)">
            <ellipse cx="481.929" cy="380.437" rx="146.912" ry="128.467" style="fill:rgb(250,167,72);"/>
            <path d="M481.929,251.793C441.875,251.718 405.502,265.671 378.904,288.355C362.291,302.524 349.487,320.098 341.979,339.782C337.105,352.562 334.469,366.233 334.458,380.437C334.448,416.537 351.429,449.199 378.793,472.627C405.392,495.401 441.8,509.447 481.929,509.449C522.059,509.447 558.467,495.402 585.067,472.629C612.433,449.201 629.417,416.538 629.409,380.437C629.395,358.951 623.372,338.684 612.706,320.869C605.457,308.763 596.065,297.789 584.976,288.334C558.372,265.648 521.99,251.697 481.929,251.777L481.929,251.793ZM481.929,252.163C521.811,252.243 557.957,266.27 584.35,288.944C595.323,298.372 604.609,309.294 611.779,321.331C622.318,339.023 628.287,359.124 628.273,380.437C628.265,416.236 611.402,448.615 584.259,471.841C557.862,494.428 521.742,508.361 481.929,508.359C442.116,508.361 405.996,494.429 379.598,471.843C352.453,448.617 335.587,416.238 335.577,380.437C335.566,366.347 338.172,352.786 342.977,340.098C350.387,320.533 363.042,303.049 379.487,288.923C405.886,266.247 442.041,252.222 481.929,252.147L481.929,252.163Z" style="fill:rgb(246,154,48);fill-opacity:0;"/>
        </g>
        <g transform="matrix(0.463649,0,0,0.507757,80.8447,151.919)">
            <ellipse cx="481.929" cy="380.437" rx="146.912" ry="128.467" style="fill:rgb(254,176,86);"/>
            <path d="M481.929,251.339C441.662,251.07 405.011,264.934 378.157,287.628C361.328,301.85 348.336,319.541 340.701,339.377C335.737,352.276 333.064,366.087 333.026,380.437C332.988,416.919 350.119,449.945 377.761,473.632C404.618,496.646 441.395,510.837 481.929,510.847C522.465,510.84 559.243,496.649 586.103,473.638C613.753,449.951 630.894,416.925 630.865,380.437C630.814,358.73 624.723,338.249 613.893,320.278C606.543,308.082 597.017,297.042 585.779,287.551C558.903,264.852 522.22,250.997 481.929,251.283L481.929,251.339ZM481.929,252.657C521.583,252.939 557.422,267.068 583.547,289.727C594.374,299.117 603.521,309.975 610.592,321.922C620.969,339.456 626.867,359.345 626.818,380.437C626.789,415.85 610.082,447.865 583.223,470.832C557.087,493.181 521.336,506.968 481.929,506.961C442.521,506.971 406.77,493.184 380.63,470.838C353.764,447.871 337.046,415.855 337.009,380.437C336.972,366.492 339.538,353.072 344.255,340.503C351.54,321.09 364.002,303.721 380.234,289.65C406.381,266.985 442.253,252.867 481.929,252.602L481.929,252.657Z" style="fill:rgb(246,154,48);fill-opacity:0;"/>
        </g>
    </g>
    <path d="M487.557,159.954C487.557,159.954 467.378,147.784 452.461,145.715C447.883,145.08 467.887,151.578 466.162,157.791C465.126,161.522 442.177,165.562 439.033,167.13C418.632,177.303 444.19,167.555 487.687,168.079C502.226,168.254 513.545,183.341 530.816,185.821C537.023,186.713 524.288,182 503.983,167.277C497.761,162.765 531.789,160.373 527.088,159.409C518.694,157.686 492.631,160.274 487.557,159.954Z" style="fill:rgb(222,133,36);"/>
    <path d="M504.128,166.182C504.14,166.202 504.158,166.23 504.173,166.248C504.254,166.348 504.368,166.445 504.511,166.548C517.812,176.155 527.862,181.474 531.463,183.755C532.444,184.377 533.003,184.864 533.173,185.138C533.459,185.6 533.384,185.991 533.22,186.283C533.101,186.495 532.883,186.729 532.46,186.832C532.176,186.902 531.588,186.905 530.679,186.775C524.042,185.827 518.262,183.065 512.847,179.966C507.187,176.725 501.936,173.113 496.484,170.956C493.634,169.827 490.729,169.101 487.675,169.065C463.202,168.762 444.42,171.725 436.341,172.541C434.045,172.773 432.538,172.8 431.918,172.614C431.085,172.364 430.883,171.819 430.942,171.293C430.969,171.057 431.081,170.744 431.392,170.413C431.651,170.138 432.123,169.777 432.834,169.339C434.01,168.615 435.913,167.615 438.607,166.275C440.65,165.261 450.974,163.204 458.344,160.883C460.566,160.182 462.512,159.461 463.843,158.729C464.303,158.476 464.685,158.227 464.964,157.974C465.126,157.826 465.257,157.697 465.298,157.551C465.484,156.893 465.313,156.234 464.942,155.581C464.575,154.934 464.017,154.3 463.346,153.68C460.254,150.824 454.837,148.346 452.535,147.141C451.737,146.723 451.258,146.364 451.153,146.202C450.981,145.934 450.987,145.691 451.047,145.501C451.112,145.295 451.261,145.025 451.684,144.935C451.824,144.905 452.112,144.895 452.565,144.962C457.229,145.653 462.396,147.317 467.301,149.306C477.839,153.58 487.171,159.306 487.712,159.64C491.403,159.784 504.605,158.502 515.233,158.22C520.18,158.088 524.576,158.182 527.233,158.703C527.638,158.783 527.87,158.915 527.979,159.009C528.167,159.171 528.235,159.357 528.255,159.528C528.274,159.685 528.246,159.847 528.155,160.01C528.087,160.132 527.937,160.302 527.65,160.436C527.314,160.594 526.582,160.785 525.563,160.988C521.2,161.857 511.131,163.177 506.272,164.977C505.425,165.291 504.75,165.607 504.334,165.954C504.256,166.02 504.164,166.134 504.128,166.182ZM456.001,147.109C458.518,148.355 461.747,150.06 464.033,151.967C465.199,152.939 466.124,153.973 466.649,155.015C467.151,156.01 467.301,157.024 467.026,158.03C466.869,158.606 466.378,159.229 465.538,159.812C464.64,160.435 463.305,161.066 461.691,161.678C454.558,164.384 441.745,166.84 439.459,167.984C437.068,169.18 435.317,170.096 434.16,170.785C434.559,170.76 435.009,170.723 435.51,170.676C443.235,169.948 462.45,166.797 487.699,167.093C490.995,167.133 494.133,167.905 497.209,169.125C502.742,171.318 508.077,174.974 513.819,178.27C518.508,180.961 523.475,183.41 529.08,184.543C527.265,183.455 524.611,181.93 521.285,179.9C516.544,177.008 510.448,173.1 503.455,168.005C502.675,167.435 502.37,166.836 502.331,166.311C502.294,165.811 502.471,165.308 502.92,164.841C503.496,164.242 504.656,163.648 506.214,163.137C510.923,161.596 519.513,160.497 524.177,159.719C521.731,159.49 518.624,159.428 515.254,159.452C504.473,159.53 491.028,160.531 487.535,160.274C487.479,160.271 487.425,160.255 487.377,160.229L487.377,160.253C487.377,160.253 477.721,154.599 466.85,150.455C463.264,149.088 459.547,147.882 456.001,147.109Z" style="fill:rgb(246,154,48);fill-opacity:0;"/>
    <g>
        <g transform="matrix(1.02249,0.254051,-0.298466,1.20125,8.92464,-126.435)">
            <path d="M493.343,84.183C493.343,84.183 405.293,-3.1 324.014,42.665C294.63,59.21 253.618,78.13 254.862,80.636C255.44,81.8 303.038,81.532 332.288,77.841C365.225,73.685 427.984,82.077 475.472,77.19C488.178,75.882 480.637,87.456 493.343,84.183Z" style="fill:rgb(145,173,62);stroke:black;stroke-opacity:0;stroke-width:0.87px;"/>
        </g>
        <g transform="matrix(1.2479,0,0,1.28551,-78.4053,-25.8542)">
            <path d="M442.945,144.271C442.945,144.271 457.694,43.149 484.127,25.306C498.127,15.856 505.669,34.068 505.669,34.068C505.669,34.068 445.021,93.262 461.23,139.055C468.148,158.597 442.945,144.271 442.945,144.271Z" style="fill:rgb(98,122,43);stroke:black;stroke-opacity:0;stroke-width:0.79px;"/>
        </g>
        <path d="M473.86,84.518C473.86,84.518 467.017,78.827 456.062,70.775C450.778,66.891 444.545,62.45 437.649,57.857C426.06,50.137 412.62,41.966 398.904,34.963C378.945,24.772 358.346,17.151 341.754,17.194C331.981,17.237 319.533,20.393 305.955,24.006C301.389,25.22 296.696,26.491 291.932,27.706C284.955,29.485 277.828,31.147 270.723,32.335C264.676,33.347 258.649,34.028 252.748,34.143C252.571,34.144 252.428,34.289 252.429,34.466C252.43,34.643 252.575,34.786 252.752,34.785C261.603,34.847 270.773,33.683 279.871,31.952C284.049,31.157 288.21,30.244 292.317,29.273C296.5,28.285 300.626,27.241 304.655,26.206C318.768,22.582 331.695,19.145 341.759,19.139C358.098,19.099 378.344,26.705 398.018,36.703C411.684,43.648 425.048,51.791 436.673,59.34C443.603,63.84 449.921,68.118 455.281,71.863C466.401,79.632 473.424,85.062 473.424,85.062C473.574,85.183 473.794,85.159 473.914,85.008C474.034,84.858 474.01,84.638 473.86,84.518Z" style="fill:rgb(126,152,48);fill-opacity:0.96;"/>
    </g>
</svg>
