<svg width="508" height="428" viewBox="0 0 508 428" fill="none" xmlns="http://www.w3.org/2000/svg">
<g opacity="0.2">
<path opacity="0.2" d="M358.527 232.086C358.527 213.553 352.814 196.713 343.503 184.183C346.801 177.332 348.307 169.755 347.88 162.163C347.453 154.571 345.106 147.211 341.06 140.773C337.014 134.334 331.4 129.028 324.744 125.35C318.089 121.672 310.609 119.742 303.005 119.742C295.401 119.742 287.921 121.672 281.265 125.35C274.61 129.028 268.996 134.334 264.95 140.773C260.903 147.211 258.557 154.571 258.13 162.163C257.702 169.755 259.208 177.332 262.506 184.183C253.195 196.713 247.483 213.553 247.483 232.086C247.483 250.619 253.195 267.459 262.506 279.989C259.208 286.841 257.702 294.417 258.13 302.01C258.557 309.602 260.903 316.961 264.95 323.4C268.996 329.838 274.61 335.145 281.265 338.823C287.921 342.501 295.401 344.43 303.005 344.43C310.609 344.43 318.089 342.501 324.744 338.823C331.4 335.145 337.014 329.838 341.06 323.4C345.106 316.961 347.453 309.602 347.88 302.01C348.307 294.417 346.801 286.841 343.503 279.989C352.814 267.459 358.527 250.619 358.527 232.086Z" fill="#F9A826"/>
<path opacity="0.1" d="M358.527 232.086C358.527 213.553 352.814 196.713 343.503 184.183C346.801 177.332 348.307 169.755 347.88 162.163C347.453 154.571 345.106 147.211 341.06 140.773C337.014 134.334 331.4 129.028 324.744 125.35C318.089 121.672 310.609 119.742 303.005 119.742C295.401 119.742 287.921 121.672 281.265 125.35C274.61 129.028 268.996 134.334 264.95 140.773C260.903 147.211 258.557 154.571 258.13 162.163C257.702 169.755 259.208 177.332 262.506 184.183C253.195 196.713 247.483 213.553 247.483 232.086C247.483 250.619 253.195 267.459 262.506 279.989C259.208 286.841 257.702 294.417 258.13 302.01C258.557 309.602 260.903 316.961 264.95 323.4C268.996 329.838 274.61 335.145 281.265 338.823C287.921 342.501 295.401 344.43 303.005 344.43C310.609 344.43 318.089 342.501 324.744 338.823C331.4 335.145 337.014 329.838 341.06 323.4C345.106 316.961 347.453 309.602 347.88 302.01C348.307 294.417 346.801 286.841 343.503 279.989C352.814 267.459 358.527 250.619 358.527 232.086Z" fill="#F9A826"/>
<path opacity="0.2" d="M361.171 232.086C361.171 213.553 355.458 196.713 346.147 184.183C349.445 177.332 350.951 169.755 350.524 162.163C350.096 154.571 347.75 147.211 343.704 140.773C339.657 134.334 334.044 129.028 327.388 125.35C320.733 121.672 313.253 119.742 305.649 119.742C298.044 119.742 290.564 121.672 283.909 125.35C277.253 129.028 271.64 134.334 267.594 140.773C263.547 147.211 261.201 154.571 260.773 162.163C260.346 169.755 261.852 177.332 265.15 184.183C255.839 196.713 250.127 213.553 250.127 232.086C250.127 250.619 255.839 267.459 265.15 279.989C261.852 286.841 260.346 294.417 260.773 302.01C261.201 309.602 263.547 316.961 267.594 323.4C271.64 329.838 277.253 335.145 283.909 338.823C290.564 342.501 298.044 344.43 305.649 344.43C313.253 344.43 320.733 342.501 327.388 338.823C334.044 335.145 339.657 329.838 343.704 323.4C347.75 316.961 350.096 309.602 350.524 302.01C350.951 294.417 349.445 286.841 346.147 279.989C355.458 267.459 361.171 250.619 361.171 232.086Z" fill="#F9A826"/>
<path opacity="0.2" d="M310.936 402.618H300.361L305.649 228.12L310.936 402.618Z" fill="#F9A826"/>
<path opacity="0.2" d="M306.97 271.731L341.341 257.203L306.97 275.71V271.731Z" fill="#F9A826"/>
<path opacity="0.2" d="M303.846 287.608L293.751 275.71L303.646 294.218L303.846 287.608Z" fill="#F9A826"/>
</g>
<g opacity="0.2">
<path opacity="0.2" d="M439.168 291.971C439.168 279.992 435.476 269.108 429.458 261.01C431.589 256.581 432.563 251.684 432.286 246.777C432.01 241.87 430.494 237.113 427.878 232.952C425.263 228.791 421.635 225.361 417.333 222.984C413.032 220.606 408.197 219.359 403.282 219.359C398.367 219.359 393.533 220.606 389.231 222.984C384.929 225.361 381.301 228.791 378.686 232.952C376.071 237.113 374.554 241.87 374.278 246.777C374.002 251.684 374.975 256.581 377.107 261.01C371.089 269.108 367.397 279.992 367.397 291.971C367.397 303.949 371.089 314.833 377.107 322.932C374.975 327.36 374.002 332.257 374.278 337.164C374.554 342.071 376.071 346.828 378.686 350.989C381.301 355.151 384.929 358.581 389.231 360.958C393.533 363.335 398.367 364.582 403.282 364.582C408.197 364.582 413.032 363.335 417.333 360.958C421.635 358.581 425.263 355.151 427.878 350.989C430.494 346.828 432.01 342.071 432.286 337.164C432.563 332.257 431.589 327.36 429.458 322.932C435.476 314.833 439.168 303.949 439.168 291.971Z" fill="#F9A826"/>
<path opacity="0.1" d="M439.168 291.971C439.168 279.992 435.476 269.108 429.458 261.01C431.589 256.581 432.563 251.684 432.286 246.777C432.01 241.87 430.494 237.113 427.878 232.952C425.263 228.791 421.635 225.361 417.333 222.984C413.032 220.606 408.197 219.359 403.282 219.359C398.367 219.359 393.533 220.606 389.231 222.984C384.929 225.361 381.301 228.791 378.686 232.952C376.071 237.113 374.554 241.87 374.278 246.777C374.002 251.684 374.975 256.581 377.107 261.01C371.089 269.108 367.397 279.992 367.397 291.971C367.397 303.949 371.089 314.833 377.107 322.932C374.975 327.36 374.002 332.257 374.278 337.164C374.554 342.071 376.071 346.828 378.686 350.989C381.301 355.151 384.929 358.581 389.231 360.958C393.533 363.335 398.367 364.582 403.282 364.582C408.197 364.582 413.032 363.335 417.333 360.958C421.635 358.581 425.263 355.151 427.878 350.989C430.494 346.828 432.01 342.071 432.286 337.164C432.563 332.257 431.589 327.36 429.458 322.932C435.476 314.833 439.168 303.949 439.168 291.971Z" fill="#F9A826"/>
<path opacity="0.2" d="M440.876 291.971C440.876 279.992 437.184 269.108 431.166 261.01C433.298 256.581 434.271 251.684 433.995 246.777C433.719 241.87 432.202 237.113 429.587 232.952C426.972 228.791 423.344 225.361 419.042 222.984C414.74 220.606 409.906 219.359 404.991 219.359C400.076 219.359 395.242 220.606 390.94 222.984C386.638 225.361 383.01 228.791 380.395 232.952C377.78 237.113 376.263 241.87 375.987 246.777C375.71 251.684 376.684 256.581 378.816 261.01C372.797 269.108 369.105 279.992 369.105 291.971C369.105 303.949 372.797 314.833 378.816 322.932C376.684 327.36 375.71 332.257 375.987 337.164C376.263 342.071 377.78 346.828 380.395 350.989C383.01 355.151 386.638 358.581 390.94 360.958C395.242 363.335 400.076 364.582 404.991 364.582C409.906 364.582 414.74 363.335 419.042 360.958C423.344 358.581 426.972 355.151 429.587 350.989C432.202 346.828 433.719 342.071 433.995 337.164C434.271 332.257 433.298 327.36 431.166 322.932C437.184 314.833 440.876 303.949 440.876 291.971Z" fill="#F9A826"/>
<path opacity="0.2" d="M408.409 402.19H401.573L404.991 289.407L408.409 402.19Z" fill="#F9A826"/>
<path opacity="0.2" d="M405.845 317.595L428.06 308.205L405.845 320.166V317.595Z" fill="#F9A826"/>
<path opacity="0.2" d="M403.826 327.856L397.301 320.166L403.696 332.128L403.826 327.856Z" fill="#F9A826"/>
</g>
<path d="M330.657 359.754H329.432V378.124H330.657V359.754Z" fill="#535461"/>
<path d="M331.269 380.574H328.208V402.005H331.269V380.574Z" fill="#535461"/>
<path d="M396.176 380.574H393.115V402.005H396.176V380.574Z" fill="#535461"/>
<path opacity="0.1" d="M331.269 380.574H328.208V402.005H331.269V380.574Z" fill="black"/>
<path opacity="0.1" d="M396.176 380.574H393.115V402.005H396.176V380.574Z" fill="black"/>
<path d="M394.339 378.124H395.564V359.754H394.339V378.124Z" fill="#535461"/>
<path opacity="0.1" d="M330.657 359.754H329.432V378.124H330.657V359.754Z" fill="black"/>
<path opacity="0.1" d="M394.339 378.124H395.564V359.754H394.339V378.124Z" fill="black"/>
<path d="M401.075 358.53H323.921V362.204H401.075V358.53Z" fill="#535461"/>
<path d="M401.075 364.653H323.921V368.327H401.075V364.653Z" fill="#535461"/>
<path d="M401.075 370.776H323.921V374.45H401.075V370.776Z" fill="#535461"/>
<path d="M401.075 377.512H323.921V384.248H401.075V377.512Z" fill="#535461"/>
<path d="M257.483 137.784H229.928V191.057H257.483V137.784Z" fill="#E0E0E0"/>
<path d="M285.957 219.531V401.393H38.575V219.531L59.394 206.733L78.9889 194.682L162.572 143.295L285.957 219.531Z" fill="#EEEEEE"/>
<path opacity="0.1" d="M254.728 401.393V210.119L251.054 212.378V401.393H254.728Z" fill="black"/>
<path d="M189.821 316.585H134.711V401.087H189.821V316.585Z" fill="#F9A826"/>
<path d="M181.554 361.285C182.907 361.285 184.004 360.189 184.004 358.836C184.004 357.483 182.907 356.387 181.554 356.387C180.202 356.387 179.105 357.483 179.105 358.836C179.105 360.189 180.202 361.285 181.554 361.285Z" fill="#535461"/>
<path opacity="0.1" d="M257.483 138.397H229.928V141.458H257.483V138.397Z" fill="black"/>
<path d="M261.77 134.723H225.03V140.846H261.77V134.723Z" fill="#E0E0E0"/>
<path opacity="0.1" d="M285.957 262.394H38.5747V267.292H285.957V262.394Z" fill="black"/>
<path d="M285.957 261.781H38.5747V266.68H285.957V261.781Z" fill="white"/>
<path opacity="0.1" d="M254.728 134.723H247.992V191.057H254.728V134.723Z" fill="black"/>
<path opacity="0.1" d="M244.93 135.029H243.094V191.363H244.93V135.029Z" fill="black"/>
<path opacity="0.1" d="M279.833 212.183V401.393H260.239V206.733L279.833 212.183Z" fill="black"/>
<path opacity="0.1" d="M73.4781 194.682V401.393H53.8831V206.733L73.4781 194.682Z" fill="black"/>
<path opacity="0.1" d="M48.372 401.393V210.119L44.698 212.378V401.393H48.372Z" fill="black"/>
<path opacity="0.1" d="M162.572 123.088L15 230.246L24.797 246.167L162.572 152.48L300.346 246.167L310.144 230.246L162.572 123.088Z" fill="black"/>
<path d="M162.572 121.864L15 229.022L24.797 244.942L162.572 151.256L300.346 244.942L310.144 229.022L162.572 121.864Z" fill="#F9A826"/>
<path opacity="0.7" d="M110.524 295.766H59.0879V347.202H110.524V295.766Z" fill="#F9A826"/>
<path opacity="0.1" d="M112.055 345.671H56.9447V351.794H112.055V345.671Z" fill="black"/>
<path d="M112.055 344.446H56.9447V350.569H112.055V344.446Z" fill="#535461"/>
<path opacity="0.15" d="M80.593 296.072L59.394 325.323V310.419L71.31 296.072H80.593Z" fill="white"/>
<path opacity="0.15" d="M98.804 296.072L59.394 337.478V330.173L88.804 296.072H98.804Z" fill="white"/>
<path d="M59.0879 321.484H110.524" stroke="#535461" stroke-width="2" stroke-miterlimit="10"/>
<path d="M59.394 296.072H110.83" stroke="#535461" stroke-width="2" stroke-miterlimit="10"/>
<path d="M110.218 296.072V347.508" stroke="#535461" stroke-width="2" stroke-miterlimit="10"/>
<path d="M59.394 295.46V346.895" stroke="#535461" stroke-width="2" stroke-miterlimit="10"/>
<path opacity="0.7" d="M214.008 347.202H265.444V295.766H214.008V347.202Z" fill="#F9A826"/>
<path opacity="0.1" d="M212.477 351.794H267.587V345.671H212.477V351.794Z" fill="black"/>
<path d="M212.477 350.569H267.587V344.446H212.477V350.569Z" fill="#535461"/>
<path opacity="0.15" d="M243.938 296.072L265.137 325.323V310.419L253.221 296.072H243.938Z" fill="white"/>
<path opacity="0.15" d="M225.728 296.072L265.137 337.478V330.173L235.727 296.072H225.728Z" fill="white"/>
<path d="M265.444 321.484H214.008" stroke="#535461" stroke-width="2" stroke-miterlimit="10"/>
<path d="M265.137 296.072H213.702" stroke="#535461" stroke-width="2" stroke-miterlimit="10"/>
<path d="M214.314 296.072V347.508" stroke="#535461" stroke-width="2" stroke-miterlimit="10"/>
<path d="M265.137 295.46V346.895" stroke="#535461" stroke-width="2" stroke-miterlimit="10"/>
<path opacity="0.7" d="M136.242 242.493H187.677V191.057H136.242V242.493Z" fill="#F9A826"/>
<path opacity="0.1" d="M134.711 247.085H189.821V240.962H134.711V247.085Z" fill="black"/>
<path d="M134.711 245.861H189.821V239.737H134.711V245.861Z" fill="#535461"/>
<path opacity="0.15" d="M166.172 191.363L187.371 220.614V205.71L175.455 191.363H166.172Z" fill="white"/>
<path opacity="0.15" d="M147.962 191.363L187.371 232.769V225.464L157.961 191.363H147.962Z" fill="white"/>
<path d="M187.678 216.775H136.242" stroke="#535461" stroke-width="2" stroke-miterlimit="10"/>
<path d="M187.371 191.363H135.936" stroke="#535461" stroke-width="2" stroke-miterlimit="10"/>
<path d="M161.959 191.057V242.493" stroke="#535461" stroke-width="2" stroke-miterlimit="10"/>
<path d="M136.548 191.363V242.799" stroke="#535461" stroke-width="2" stroke-miterlimit="10"/>
<path d="M187.371 190.751V242.187" stroke="#535461" stroke-width="2" stroke-miterlimit="10"/>
<path d="M304.939 322.402C305.043 314.453 302.605 306.679 297.98 300.213C299.508 297.04 300.205 293.53 300.007 290.013C299.809 286.497 298.722 283.088 296.848 280.105C294.974 277.123 292.374 274.665 289.291 272.961C286.208 271.258 282.743 270.364 279.221 270.364C275.699 270.364 272.234 271.258 269.151 272.961C266.068 274.665 263.468 277.123 261.594 280.105C259.719 283.088 258.632 286.497 258.434 290.013C258.237 293.53 258.934 297.04 260.462 300.213C255.931 306.726 253.503 314.469 253.503 322.402C253.503 330.335 255.931 338.079 260.462 344.591C258.934 347.765 258.237 351.274 258.434 354.791C258.632 358.308 259.719 361.717 261.594 364.699C263.468 367.681 266.068 370.139 269.151 371.843C272.234 373.547 275.699 374.44 279.221 374.44C282.743 374.44 286.208 373.547 289.291 371.843C292.374 370.139 294.974 367.681 296.848 364.699C298.722 361.717 299.809 358.308 300.007 354.791C300.205 351.274 299.508 347.765 297.98 344.591C302.605 338.125 305.043 330.351 304.939 322.402Z" fill="#4DB6AC"/>
<path opacity="0.1" d="M304.939 322.402C305.043 314.453 302.605 306.679 297.98 300.213C299.508 297.04 300.205 293.53 300.007 290.013C299.809 286.497 298.722 283.088 296.848 280.105C294.974 277.123 292.374 274.665 289.291 272.961C286.208 271.258 282.743 270.364 279.221 270.364C275.699 270.364 272.234 271.258 269.151 272.961C266.068 274.665 263.468 277.123 261.594 280.105C259.719 283.088 258.632 286.497 258.434 290.013C258.237 293.53 258.934 297.04 260.462 300.213C255.931 306.726 253.503 314.469 253.503 322.402C253.503 330.335 255.931 338.079 260.462 344.591C258.934 347.765 258.237 351.274 258.434 354.791C258.632 358.308 259.719 361.717 261.594 364.699C263.468 367.681 266.068 370.139 269.151 371.843C272.234 373.547 275.699 374.44 279.221 374.44C282.743 374.44 286.208 373.547 289.291 371.843C292.374 370.139 294.974 367.681 296.848 364.699C298.722 361.717 299.809 358.308 300.007 354.791C300.205 351.274 299.508 347.765 297.98 344.591C302.605 338.125 305.043 330.351 304.939 322.402Z" fill="black"/>
<path d="M306.164 322.402C306.268 314.453 303.83 306.679 299.205 300.213C300.733 297.04 301.43 293.53 301.232 290.013C301.034 286.497 299.947 283.088 298.073 280.105C296.199 277.123 293.598 274.665 290.516 272.961C287.433 271.258 283.968 270.364 280.446 270.364C276.923 270.364 273.459 271.258 270.376 272.961C267.293 274.665 264.693 277.123 262.818 280.105C260.944 283.088 259.857 286.497 259.659 290.013C259.461 293.53 260.159 297.04 261.687 300.213C257.156 306.726 254.728 314.469 254.728 322.402C254.728 330.335 257.156 338.079 261.687 344.591C260.159 347.765 259.461 351.274 259.659 354.791C259.857 358.308 260.944 361.717 262.818 364.699C264.693 367.681 267.293 370.139 270.376 371.843C273.459 373.547 276.923 374.44 280.446 374.44C283.968 374.44 287.433 373.547 290.516 371.843C293.598 370.139 296.199 367.681 298.073 364.699C299.947 361.717 301.034 358.308 301.232 354.791C301.43 351.274 300.733 347.765 299.205 344.591C303.83 338.125 306.268 330.351 306.164 322.402V322.402Z" fill="#4DB6AC"/>
<path d="M282.895 401.393H277.996L280.446 320.565L282.895 401.393Z" fill="#5D291B"/>
<path d="M281.058 340.766L296.979 334.036L281.058 342.609V340.766Z" fill="#5D291B"/>
<path d="M279.611 348.12L274.935 342.609L279.518 351.182L279.611 348.12Z" fill="#5D291B"/>
<g opacity="0.7">
<path opacity="0.7" d="M352.476 375.064L351.972 374.97L352.966 371.303C354.533 359.553 348.614 358.369 346.395 358.33C346.14 358.236 345.879 358.157 345.615 358.093V356.708C347.011 356.363 348.276 355.616 349.253 354.561C350.229 353.505 350.875 352.186 351.11 350.767L351.128 350.768C351.481 350.768 351.767 350.232 351.767 349.57C351.781 349.219 351.684 348.873 351.489 348.581C351.514 348.328 351.527 348.072 351.528 347.812C351.529 346.778 351.32 345.754 350.913 344.802C350.507 343.851 349.912 342.991 349.164 342.277C349.062 341.764 348.879 341.272 348.622 340.817C348.077 339.857 347.171 338.856 347.54 337.817L345.147 338.063L345.125 336.486C344.378 336.62 344.065 337.485 343.622 338.102C342.557 339.584 340.418 339.79 339.004 340.944C338.523 341.337 337.441 342.531 337.646 343.313C336.696 344.621 336.185 346.196 336.187 347.812C336.187 348.072 336.2 348.328 336.225 348.581C336.03 348.873 335.933 349.219 335.947 349.57C335.947 350.232 336.233 350.768 336.586 350.768L336.599 350.767C336.836 352.186 337.483 353.504 338.461 354.56C339.438 355.616 340.703 356.362 342.099 356.708V358.093C341.835 358.157 341.575 358.236 341.32 358.33C339.1 358.37 333.182 359.553 334.748 371.303L335.743 374.97L335.506 375.014C334.795 375.147 334.166 375.556 333.757 376.153C333.349 376.749 333.193 377.484 333.326 378.195L337.249 399.209C337.289 399.424 337.413 399.614 337.593 399.738C337.774 399.862 337.996 399.909 338.212 399.869L338.903 399.74V400.148C338.52 400.338 338.197 400.631 337.971 400.994C337.745 401.358 337.625 401.777 337.625 402.205V402.465H342.259V402.205C342.259 401.808 342.156 401.418 341.96 401.073C341.764 400.728 341.482 400.439 341.141 400.236V399.322L341.772 399.204C341.879 399.184 341.981 399.143 342.071 399.084C342.162 399.025 342.241 398.949 342.302 398.859C342.363 398.77 342.406 398.669 342.429 398.563C342.451 398.457 342.452 398.347 342.433 398.241L338.747 378.494H348.968L345.282 398.241C345.242 398.456 345.289 398.679 345.413 398.859C345.536 399.04 345.727 399.164 345.942 399.204L346.574 399.322V400.236C346.233 400.439 345.951 400.728 345.755 401.073C345.559 401.418 345.455 401.808 345.455 402.205V402.465H350.09V402.205C350.089 401.777 349.97 401.358 349.744 400.994C349.518 400.631 349.195 400.338 348.811 400.148V399.74L349.503 399.869C349.718 399.909 349.941 399.862 350.121 399.738C350.302 399.614 350.426 399.424 350.466 399.209L354.439 377.927C354.498 377.61 354.494 377.285 354.427 376.969C354.361 376.654 354.233 376.355 354.05 376.089C353.868 375.823 353.635 375.596 353.365 375.42C353.095 375.244 352.793 375.123 352.476 375.064V375.064Z" fill="url(#paint0_linear)"/>
</g>
<path d="M341.244 397.064H339.092V399.986H341.244V397.064Z" fill="#FDB797"/>
<path d="M348.625 397.064H346.472V399.986H348.625V397.064Z" fill="#FDB797"/>
<path d="M350.931 373.079H336.786V378.153H350.931V373.079Z" fill="#4D8AF0"/>
<g opacity="0.05">
<path opacity="0.05" d="M350.931 373.079H336.786V378.153H350.931V373.079Z" fill="black"/>
</g>
<path opacity="0.1" d="M336.786 374.002C339.113 374.568 341.476 374.979 343.858 375.232C346.24 374.979 348.603 374.568 350.931 374.002V373.233H336.786V374.002Z" fill="black"/>
<path d="M350.931 373.848C348.603 374.414 346.24 374.825 343.858 375.078C341.476 374.825 339.113 374.414 336.786 373.848V365.391C336.786 364.463 336.969 363.543 337.324 362.685C337.679 361.827 338.2 361.047 338.857 360.39C339.514 359.734 340.294 359.213 341.152 358.857C342.01 358.502 342.929 358.319 343.858 358.319V358.319C344.787 358.319 345.707 358.502 346.565 358.857C347.423 359.213 348.203 359.734 348.859 360.39C349.516 361.047 350.037 361.827 350.393 362.685C350.748 363.543 350.931 364.463 350.931 365.391V373.848Z" fill="#F55F44"/>
<path d="M342.167 354.782H345.55V358.657C345.55 358.875 345.507 359.091 345.423 359.293C345.34 359.494 345.218 359.677 345.063 359.831C344.909 359.985 344.726 360.108 344.525 360.191C344.323 360.275 344.108 360.317 343.89 360.317H343.827C343.609 360.317 343.393 360.275 343.192 360.191C342.99 360.108 342.807 359.985 342.653 359.831C342.499 359.677 342.377 359.494 342.293 359.293C342.21 359.091 342.167 358.875 342.167 358.657V354.782H342.167Z" fill="#FDB797"/>
<path d="M341.495 398.145L338.783 398.651C338.482 398.708 338.17 398.642 337.917 398.468C337.663 398.295 337.489 398.028 337.433 397.726L333.946 379.044C333.76 378.047 333.977 377.017 334.55 376.181C335.124 375.345 336.006 374.77 337.002 374.584L337.094 374.567C337.244 374.539 337.397 374.541 337.546 374.572C337.695 374.604 337.836 374.664 337.961 374.75C338.086 374.836 338.194 374.946 338.277 375.073C338.359 375.201 338.416 375.343 338.444 375.492L342.421 396.795C342.477 397.097 342.411 397.409 342.238 397.662C342.064 397.915 341.797 398.089 341.495 398.145V398.145Z" fill="#4D8AF0"/>
<path d="M346.316 398.163L348.838 398.634C349 398.664 349.167 398.662 349.328 398.628C349.489 398.594 349.641 398.529 349.777 398.435C349.913 398.342 350.029 398.223 350.119 398.085C350.209 397.948 350.271 397.793 350.301 397.631L353.788 378.949C353.97 377.977 353.758 376.974 353.199 376.158C352.64 375.343 351.78 374.783 350.809 374.602L350.717 374.585C350.555 374.554 350.389 374.556 350.228 374.59C350.067 374.624 349.914 374.69 349.778 374.783C349.642 374.876 349.526 374.995 349.436 375.133C349.346 375.271 349.285 375.425 349.254 375.587L345.313 396.7C345.252 397.027 345.324 397.365 345.512 397.639C345.7 397.913 345.989 398.102 346.316 398.163V398.163Z" fill="#4D8AF0"/>
<path opacity="0.1" d="M342.167 357.345C343.278 357.618 344.439 357.618 345.55 357.345V354.936H342.167V357.345Z" fill="black"/>
<path d="M343.858 356.012C347.934 356.012 351.238 352.708 351.238 348.632C351.238 344.556 347.934 341.252 343.858 341.252C339.782 341.252 336.478 344.556 336.478 348.632C336.478 352.708 339.782 356.012 343.858 356.012Z" fill="#333333"/>
<path d="M343.858 357.396C347.764 357.396 350.931 354.23 350.931 350.324C350.931 346.418 347.764 343.251 343.858 343.251C339.952 343.251 336.786 346.418 336.786 350.324C336.786 354.23 339.952 357.396 343.858 357.396Z" fill="#FDB797"/>
<path d="M339.189 342.024C340.549 340.914 342.607 340.716 343.632 339.289C344.058 338.696 344.359 337.864 345.078 337.735L345.099 339.252L347.402 339.015C347.046 340.016 347.918 340.978 348.442 341.902C348.828 342.584 349.04 343.352 349.057 344.136C348.258 344.616 347.266 344.092 346.377 343.813C345.499 343.582 344.593 343.472 343.686 343.488C343.222 343.455 342.755 343.481 342.297 343.564C341.903 343.671 341.52 343.812 341.151 343.986C340.538 344.242 338.605 345.21 338.036 344.586C337.39 343.878 338.663 342.453 339.189 342.024Z" fill="#333333"/>
<path opacity="0.1" d="M339.573 346.777C339.96 346.986 340.385 347.114 340.823 347.154C342.635 347.401 344.48 347.194 346.191 346.55C346.352 346.898 346.587 347.206 346.879 347.453C347.171 347.7 347.514 347.88 347.883 347.981C348.623 348.176 349.387 348.261 350.151 348.234C350.319 348.252 350.489 348.22 350.638 348.14C350.978 347.911 350.814 347.385 350.616 347.025L349.63 345.239C349.369 344.695 349.017 344.199 348.588 343.774C347.992 343.304 347.283 343 346.532 342.891C344.783 342.543 342.977 342.603 341.254 343.067C339.413 343.564 337.048 345.249 339.573 346.777Z" fill="black"/>
<path d="M339.573 346.623C339.96 346.832 340.385 346.96 340.823 347C342.635 347.247 344.48 347.04 346.191 346.397C346.352 346.744 346.587 347.052 346.879 347.299C347.171 347.546 347.514 347.726 347.883 347.827C348.623 348.022 349.387 348.108 350.151 348.08C350.319 348.099 350.489 348.066 350.638 347.987C350.978 347.757 350.814 347.231 350.616 346.872L349.63 345.085C349.369 344.541 349.017 344.045 348.588 343.62C347.992 343.15 347.283 342.846 346.532 342.737C344.783 342.389 342.977 342.449 341.254 342.913C339.413 343.41 337.048 345.095 339.573 346.623Z" fill="#333333"/>
<path d="M350.854 351.477C351.194 351.477 351.469 350.96 351.469 350.324C351.469 349.687 351.194 349.17 350.854 349.17C350.514 349.17 350.239 349.687 350.239 350.324C350.239 350.96 350.514 351.477 350.854 351.477Z" fill="#FDB797"/>
<path d="M336.863 351.477C337.202 351.477 337.478 350.96 337.478 350.324C337.478 349.687 337.202 349.17 336.863 349.17C336.523 349.17 336.248 349.687 336.248 350.324C336.248 350.96 336.523 351.477 336.863 351.477Z" fill="#FDB797"/>
<path d="M342.196 358.79C342.196 358.79 333.249 357.396 335.094 371.234L336.17 375.2L339.246 375.078C339.246 375.078 337.247 370.465 338.477 367.39C339.707 364.315 342.196 358.79 342.196 358.79Z" fill="#F55F44"/>
<path d="M345.521 358.79C345.521 358.79 354.467 357.396 352.622 371.234L351.547 375.2L348.471 375.078C348.471 375.078 350.47 370.465 349.24 367.39C348.01 364.315 345.521 358.79 345.521 358.79Z" fill="#F55F44"/>
<path d="M337.862 377.384C338.796 377.384 339.553 376.627 339.553 375.693C339.553 374.759 338.796 374.001 337.862 374.001C336.928 374.001 336.171 374.759 336.171 375.693C336.171 376.627 336.928 377.384 337.862 377.384Z" fill="#FDB797"/>
<path d="M350.162 377.384C351.096 377.384 351.853 376.627 351.853 375.693C351.853 374.759 351.096 374.001 350.162 374.001C349.228 374.001 348.471 374.759 348.471 375.693C348.471 376.627 349.228 377.384 350.162 377.384Z" fill="#FDB797"/>
<path d="M340.05 398.756H340.132C340.713 398.756 341.269 398.986 341.68 399.397C342.09 399.807 342.321 400.364 342.321 400.944V401.216H337.862V400.944C337.862 400.657 337.918 400.372 338.028 400.107C338.138 399.841 338.3 399.6 338.503 399.397C338.706 399.193 338.947 399.032 339.213 398.922C339.478 398.812 339.763 398.756 340.05 398.756V398.756Z" fill="#333333"/>
<path d="M347.584 398.756H347.666C348.247 398.756 348.803 398.986 349.214 399.397C349.624 399.807 349.855 400.364 349.855 400.944V401.216H345.396V400.944C345.396 400.657 345.452 400.372 345.562 400.107C345.672 399.841 345.833 399.6 346.037 399.397C346.24 399.193 346.481 399.032 346.747 398.922C347.012 398.812 347.297 398.756 347.584 398.756Z" fill="#333333"/>
<path opacity="0.1" d="M338.323 366.16C338.323 366.16 337.708 369.389 338.784 370.773Z" fill="black"/>
<path opacity="0.1" d="M349.393 366.16C349.393 366.16 350.008 369.389 348.932 370.773Z" fill="black"/>
<path d="M83.8444 386.321C83.8659 386.04 83.8873 385.759 83.8873 385.472C83.8901 383.529 83.3782 381.619 82.4036 379.938C81.4291 378.256 80.0267 376.863 78.339 375.899C76.6512 374.935 74.7384 374.435 72.795 374.451C70.8515 374.466 68.9468 374.995 67.2743 375.986C66.3973 374.344 65.1182 372.951 63.5567 371.938C61.9952 370.925 60.2022 370.324 58.3455 370.192C56.4887 370.06 54.6288 370.401 52.9396 371.183C51.2504 371.965 49.7871 373.162 48.6866 374.664C46.4487 374.217 44.1273 374.477 42.0432 375.406C39.9591 376.335 38.215 377.889 37.0518 379.852C35.8886 381.816 35.3638 384.092 35.5497 386.366C35.7357 388.64 36.6233 390.801 38.0899 392.549C37.3009 394.593 37.1399 396.826 37.6275 398.961C38.115 401.097 39.2289 403.038 40.8265 404.537C42.4241 406.036 44.4327 407.024 46.5951 407.375C48.7575 407.725 50.9753 407.422 52.9645 406.505C54.9134 407.406 57.084 407.714 59.2068 407.392C61.3297 407.07 63.3111 406.132 64.905 404.693C66.3729 406.02 68.1733 406.924 70.1143 407.308C72.0553 407.692 74.0642 407.543 75.927 406.876C78.6323 407.834 81.6047 407.699 84.2118 406.499C86.8189 405.299 88.8549 403.129 89.8865 400.451C90.9181 397.773 90.864 394.798 89.7355 392.159C88.6071 389.52 86.4935 387.426 83.8444 386.321H83.8444Z" fill="#4DB6AC"/>
<path opacity="0.1" d="M83.8444 386.321C83.8659 386.04 83.8873 385.759 83.8873 385.472C83.8901 383.529 83.3782 381.619 82.4036 379.938C81.4291 378.256 80.0267 376.863 78.339 375.899C76.6512 374.935 74.7384 374.435 72.795 374.451C70.8515 374.466 68.9468 374.995 67.2743 375.986C66.3973 374.344 65.1182 372.951 63.5567 371.938C61.9952 370.925 60.2022 370.324 58.3455 370.192C56.4887 370.06 54.6288 370.401 52.9396 371.183C51.2504 371.965 49.7871 373.162 48.6866 374.664C46.4487 374.217 44.1273 374.477 42.0432 375.406C39.9591 376.335 38.215 377.889 37.0518 379.852C35.8886 381.816 35.3638 384.092 35.5497 386.366C35.7357 388.64 36.6233 390.801 38.0899 392.549C37.3009 394.593 37.1399 396.826 37.6275 398.961C38.115 401.097 39.2289 403.038 40.8265 404.537C42.4241 406.036 44.4327 407.024 46.5951 407.375C48.7575 407.725 50.9753 407.422 52.9645 406.505C54.9134 407.406 57.084 407.714 59.2068 407.392C61.3297 407.07 63.3111 406.132 64.905 404.693C66.3729 406.02 68.1733 406.924 70.1143 407.308C72.0553 407.692 74.0642 407.543 75.927 406.876C78.6323 407.834 81.6047 407.699 84.2118 406.499C86.8189 405.299 88.8549 403.129 89.8865 400.451C90.9181 397.773 90.864 394.798 89.7355 392.159C88.6071 389.52 86.4935 387.426 83.8444 386.321H83.8444Z" fill="black"/>
<path d="M85.0691 386.321C85.0906 386.04 85.112 385.759 85.112 385.472C85.1148 383.529 84.6029 381.619 83.6284 379.938C82.6538 378.256 81.2514 376.863 79.5637 375.899C77.876 374.935 75.9632 374.435 74.0197 374.451C72.0763 374.466 70.1715 374.995 68.499 375.986C67.622 374.344 66.3429 372.951 64.7814 371.938C63.2199 370.925 61.4269 370.324 59.5702 370.192C57.7134 370.06 55.8535 370.401 54.1643 371.183C52.4751 371.965 51.0119 373.162 49.9113 374.664C47.6734 374.217 45.3521 374.477 43.268 375.406C41.1838 376.335 39.4397 377.889 38.2765 379.852C37.1134 381.816 36.5885 384.092 36.7744 386.366C36.9604 388.64 37.848 390.801 39.3146 392.549C38.5257 394.593 38.3646 396.826 38.8522 398.961C39.3397 401.097 40.4536 403.039 42.0512 404.537C43.6488 406.036 45.6574 407.024 47.8198 407.375C49.9822 407.725 52.2 407.422 54.1893 406.505C56.1381 407.406 58.3088 407.714 60.4316 407.392C62.5544 407.07 64.5358 406.132 66.1297 404.693C67.5977 406.02 69.398 406.924 71.339 407.308C73.28 407.692 75.2889 407.543 77.1517 406.876C79.857 407.834 82.8294 407.699 85.4366 406.499C88.0437 405.299 90.0796 403.129 91.1112 400.451C92.1429 397.773 92.0887 394.798 90.9603 392.159C89.8318 389.52 87.7182 387.426 85.0692 386.321H85.0691Z" fill="#4DB6AC"/>
<path d="M469 402H24V410H469V402Z" fill="#333333"/>
<g opacity="0.3">
<path opacity="0.3" d="M264.148 45.8005H188.071C182.978 45.8005 178.849 49.9291 178.849 55.0219V55.022C178.849 60.1149 182.978 64.2434 188.071 64.2434H264.148C269.241 64.2434 273.369 60.1149 273.369 55.0219C273.369 49.9291 269.241 45.8005 264.148 45.8005Z" fill="#E0E0E0"/>
<path opacity="0.3" d="M241.094 64.2434H165.017C159.924 64.2434 155.795 68.372 155.795 73.4649V73.4649C155.795 78.5578 159.924 82.6864 165.017 82.6864H241.094C246.187 82.6864 250.316 78.5578 250.316 73.4649C250.316 68.372 246.187 64.2434 241.094 64.2434Z" fill="#E0E0E0"/>
<path opacity="0.3" d="M264.148 82.6864H188.071C182.978 82.6864 178.849 86.815 178.849 91.9079V91.9079C178.849 97.0008 182.978 101.129 188.071 101.129H264.148C269.241 101.129 273.369 97.0008 273.369 91.9079C273.369 86.815 269.241 82.6864 264.148 82.6864Z" fill="#E0E0E0"/>
</g>
<g opacity="0.3">
<path opacity="0.3" d="M100.004 112.373H120.176C120.176 112.373 112.575 125.821 100.004 112.373Z" fill="#030B44"/>
<path opacity="0.3" d="M101.222 118.095L114.446 102.862C114.446 102.862 119.618 117.418 101.222 118.095Z" fill="#030B44"/>
</g>
<g opacity="0.3">
<path opacity="0.3" d="M321.269 39.5051H341.441C341.441 39.5051 333.84 52.9531 321.269 39.5051Z" fill="#030B44"/>
<path opacity="0.3" d="M322.486 45.2273L335.71 29.9946C335.71 29.9946 340.882 44.5505 322.486 45.2273Z" fill="#030B44"/>
</g>
<path d="M229.387 380.254L227.91 382.668C227.91 382.668 227.839 383.279 228.331 382.909C228.919 382.133 229.405 381.285 229.778 380.385L229.387 380.254Z" fill="#2F2E41"/>
<path d="M242.066 357.158L245.783 350.959C246.023 350.549 246.358 350.202 246.759 349.947C247.16 349.692 247.616 349.536 248.089 349.492C248.508 349.429 248.936 349.52 249.294 349.749C249.651 349.977 249.914 350.327 250.033 350.733C250.274 351.44 250.319 352.2 250.162 352.93C250.006 353.661 249.655 354.335 249.146 354.882C249.146 354.882 248.374 355.091 248.415 354.37L249.299 352.827C249.299 352.827 250.033 350.733 247.979 350.58C245.924 350.427 242.988 357.5 242.988 357.5L242.066 357.158Z" fill="#2F2E41"/>
<path d="M244.33 358.083L241.932 360.154C241.928 361.042 241.143 362.837 239.981 365.012C239.892 365.179 239.801 365.348 239.707 365.519C239.017 366.784 238.215 368.158 237.375 369.545C237.283 369.698 237.19 369.851 237.096 370.004C236.156 371.543 235.18 373.085 234.268 374.498C234.173 374.646 234.079 374.791 233.986 374.937C232.933 376.558 231.985 377.984 231.299 379.003C231.198 379.153 231.103 379.294 231.014 379.427C230.503 380.184 230.198 380.626 230.198 380.626C230.017 380.74 229.806 380.797 229.591 380.79C229.513 380.782 229.437 380.754 229.371 380.71C229.305 380.666 229.252 380.606 229.215 380.536C229.076 380.213 229.025 379.86 229.067 379.512C229.344 378.114 229.81 376.76 230.453 375.488C230.538 375.304 230.627 375.118 230.718 374.929C231.446 373.438 232.35 371.833 233.314 370.242L233.595 369.782C234.532 368.256 235.513 366.753 236.436 365.386C236.533 365.245 236.628 365.106 236.721 364.967C237.629 363.634 238.468 362.448 239.137 361.519C239.238 361.379 239.333 361.247 239.426 361.12C240.191 360.064 240.67 359.431 240.67 359.431L241.216 356.204L242.26 356.834L243.064 357.319L244.33 358.083Z" fill="#3F3D56"/>
<path d="M230.718 374.929L231.3 379.002C231.198 379.153 231.103 379.294 231.014 379.427L230.453 375.488C230.538 375.304 230.627 375.118 230.718 374.929Z" fill="#F9A826"/>
<path d="M233.595 369.782L234.268 374.498C234.173 374.646 234.079 374.791 233.986 374.937L233.314 370.242L233.595 369.782Z" fill="#F9A826"/>
<path d="M236.721 364.967L237.375 369.545C237.283 369.698 237.19 369.851 237.096 370.004L236.436 365.386C236.533 365.245 236.628 365.106 236.721 364.967Z" fill="#F9A826"/>
<path d="M239.426 361.12L239.981 365.012C239.892 365.179 239.801 365.348 239.708 365.519L239.137 361.519C239.238 361.379 239.333 361.247 239.426 361.12Z" fill="#F9A826"/>
<path d="M259.162 329.705C261.597 329.705 263.571 327.731 263.571 325.296C263.571 322.861 261.597 320.887 259.162 320.887C256.727 320.887 254.752 322.861 254.752 325.296C254.752 327.731 256.727 329.705 259.162 329.705Z" fill="#2F2E41"/>
<path d="M256.398 328.267C256.398 328.267 256.778 332.63 256.398 333.769C256.019 334.907 261.331 333.199 261.331 333.199C261.331 333.199 259.244 328.267 259.624 327.792C260.003 327.318 256.398 328.267 256.398 328.267Z" fill="#FFB8B8"/>
<path d="M256.256 360.188L255.972 374.132C255.899 375.066 256.132 375.998 256.636 376.788C257.489 378.211 261.284 388.931 261.284 388.931L264.414 387.223L264.13 382.954C264.13 382.954 263.56 377.073 261.663 374.891L264.414 361.516L256.256 360.188Z" fill="#FFB8B8"/>
<path opacity="0.1" d="M256.256 360.188L255.972 374.132C255.899 375.066 256.132 375.998 256.636 376.788C257.489 378.211 261.284 388.931 261.284 388.931L264.414 387.223L264.13 382.954C264.13 382.954 263.56 377.073 261.663 374.891L264.414 361.516L256.256 360.188Z" fill="black"/>
<path d="M264.794 385.231C264.794 385.231 256.92 386.844 258.248 389.405C259.576 391.966 262.043 397.278 262.043 397.278C262.043 397.278 262.707 400.598 261.473 401.263C260.24 401.927 257.679 405.911 260.145 405.721C262.612 405.531 264.983 402.78 264.983 402.78L267.07 400.124L267.45 400.788L271.244 397.658C271.244 397.658 272.667 394.622 267.45 393.104L264.794 385.231Z" fill="#2F2E41"/>
<path opacity="0.1" d="M264.794 385.231C264.794 385.231 256.92 386.844 258.248 389.405C259.576 391.966 262.043 397.278 262.043 397.278C262.043 397.278 262.707 400.598 261.473 401.263C260.24 401.927 257.679 405.911 260.145 405.721C262.612 405.531 264.983 402.78 264.983 402.78L267.07 400.124L267.45 400.788L271.244 397.658C271.244 397.658 272.667 394.622 267.45 393.104L264.794 385.231Z" fill="black"/>
<path d="M254.644 360.567L254.359 374.512C254.287 375.446 254.52 376.378 255.023 377.168C255.877 378.591 259.671 389.31 259.671 389.31L262.802 387.603L262.517 383.334C262.517 383.334 261.948 377.452 260.051 375.271L262.802 361.895L254.644 360.567Z" fill="#FFB8B8"/>
<path d="M263.181 385.61C263.181 385.61 255.307 387.223 256.636 389.784C257.964 392.346 260.43 397.658 260.43 397.658C260.43 397.658 261.094 400.978 259.861 401.642C258.628 402.306 256.066 406.29 258.533 406.1C260.999 405.911 263.371 403.16 263.371 403.16L265.458 400.504L265.837 401.168L269.632 398.037C269.632 398.037 271.055 395.002 265.837 393.484L263.181 385.61Z" fill="#2F2E41"/>
<path d="M257.726 330.638C259.717 330.638 261.331 329.024 261.331 327.033C261.331 325.043 259.717 323.429 257.726 323.429C255.735 323.429 254.122 325.043 254.122 327.033C254.122 329.024 255.735 330.638 257.726 330.638Z" fill="#FFB8B8"/>
<path d="M257.3 332.488C257.3 332.488 261.284 330.306 263.086 330.306C264.888 330.306 266.881 329.452 267.07 330.496C267.26 331.539 269.157 334.29 267.26 334.101C265.363 333.911 263.845 334.196 262.896 334.101C261.948 334.006 257.3 332.488 257.3 332.488Z" fill="#575A89"/>
<path d="M255.023 357.342C255.023 357.342 253.315 361.611 254.454 361.8C257.066 362.123 259.695 362.281 262.327 362.275C262.612 362.085 263.56 357.152 255.023 357.342Z" fill="#F9A826"/>
<path d="M266.691 359.239C264.699 361.136 265.837 361.99 265.078 363.413C264.319 364.836 258.723 363.697 256.446 360.662C254.169 357.626 253.6 358.765 251.134 358.385C248.667 358.006 246.485 356.203 248.572 355.16C249.659 354.534 250.524 353.586 251.047 352.447C251.51 351.53 251.799 350.535 251.902 349.513C251.974 348.801 251.939 348.083 251.798 347.381C251.418 345.538 252.061 341.898 253.107 338.657C253.662 336.691 254.542 334.831 255.71 333.155C255.765 333.087 255.821 333.023 255.877 332.962C258.153 330.496 263.276 332.298 263.276 332.298C263.276 332.298 267.07 335.429 265.742 339.413C264.633 342.634 264.769 346.153 266.122 349.279C267.165 351.65 268.683 357.342 266.691 359.239Z" fill="#575A89"/>
<path d="M251.893 351.46L250.849 352.124C250.849 352.124 246.58 350.891 246.675 352.124C246.77 353.358 251.134 353.737 251.134 353.737L252.651 352.599L251.893 351.46Z" fill="#FFB8B8"/>
<path opacity="0.1" d="M257.015 333.626C257.015 333.626 254.266 332.518 254.313 336.866C254.451 340.093 254.911 343.298 255.687 346.433L251.806 352.047L253.031 353.927L260.905 347.476V338.559C260.905 338.559 260.525 334.006 257.015 333.626Z" fill="black"/>
<path opacity="0.1" d="M259.576 338.085V347.002L252.319 352.931L251.845 351.887C252.289 351.005 251.801 350.555 251.902 349.513L254.359 345.958C253.773 343.556 253.355 341.117 253.107 338.657C253.662 336.691 254.541 334.831 255.71 333.155C259.199 333.551 259.576 338.085 259.576 338.085Z" fill="black"/>
<path d="M256.636 333.152C256.636 333.152 253.887 332.043 253.933 336.392C254.071 339.619 254.531 342.823 255.307 345.958L251.426 351.573L252.651 353.452L260.525 347.002V338.085C260.525 338.085 260.145 333.532 256.636 333.152Z" fill="#575A89"/>
<path d="M263.938 323.9C266.374 323.9 268.348 321.925 268.348 319.49C268.348 317.055 266.374 315.081 263.938 315.081C261.503 315.081 259.529 317.055 259.529 319.49C259.529 321.925 261.503 323.9 263.938 323.9Z" fill="#2F2E41"/>
<path d="M267.742 323.141C267.171 323.554 266.51 323.824 265.814 323.928C265.117 324.033 264.406 323.969 263.739 323.742C263.073 323.516 262.47 323.133 261.982 322.625C261.493 322.118 261.134 321.501 260.933 320.826C261.009 321.431 261.209 322.013 261.522 322.537C261.834 323.06 262.252 323.513 262.748 323.867C263.245 324.221 263.809 324.468 264.406 324.592C265.002 324.717 265.618 324.717 266.215 324.591C266.811 324.466 267.375 324.218 267.871 323.864C268.367 323.509 268.784 323.056 269.096 322.532C269.408 322.009 269.608 321.426 269.683 320.821C269.759 320.216 269.708 319.602 269.534 319.018C269.633 319.803 269.518 320.6 269.203 321.325C268.888 322.051 268.383 322.678 267.742 323.141Z" fill="#2F2E41"/>
<path d="M260.338 329.264C262.123 329.264 263.571 327.817 263.571 326.031C263.571 324.245 262.123 322.797 260.338 322.797C258.552 322.797 257.104 324.245 257.104 326.031C257.104 327.817 258.552 329.264 260.338 329.264Z" fill="#2F2E41"/>
<path d="M257.618 327.06C259.201 327.06 260.485 326.056 260.485 324.818C260.485 323.58 259.201 322.577 257.618 322.577C256.036 322.577 254.752 323.58 254.752 324.818C254.752 326.056 256.036 327.06 257.618 327.06Z" fill="#2F2E41"/>
<path d="M256.854 328.077C257.154 328.077 257.398 327.646 257.398 327.115C257.398 326.583 257.154 326.153 256.854 326.153C256.554 326.153 256.31 326.583 256.31 327.115C256.31 327.646 256.554 328.077 256.854 328.077Z" fill="#FFB8B8"/>
<defs>
<linearGradient id="paint0_linear" x1="343.88" y1="402.465" x2="343.88" y2="336.486" gradientUnits="userSpaceOnUse">
<stop stop-color="#808080" stop-opacity="0.25"/>
<stop offset="0.53514" stop-color="#808080" stop-opacity="0.12"/>
<stop offset="1" stop-color="#808080" stop-opacity="0.1"/>
</linearGradient>
</defs>
</svg>
