<?xml version="1.0" encoding="UTF-8" standalone="no"?>
<!DOCTYPE svg PUBLIC "-//W3C//DTD SVG 1.1//EN" "http://www.w3.org/Graphics/SVG/1.1/DTD/svg11.dtd">
<svg width="100%" height="100%" viewBox="0 0 1010 1008" version="1.1" xmlns="http://www.w3.org/2000/svg" xmlns:xlink="http://www.w3.org/1999/xlink" xml:space="preserve" xmlns:serif="http://www.serif.com/" style="fill-rule:evenodd;clip-rule:evenodd;stroke-linecap:round;stroke-linejoin:round;stroke-miterlimit:1.5;">
    <g id="Layer3" transform="matrix(0.772815,0,0,0.76195,-258.628,-74.4097)">
        <g transform="matrix(1,0,0,1,-10.0646,-59.7888)">
            <g transform="matrix(1,0,0,1,-363.878,-199.742)">
                <circle cx="1296.3" cy="553.957" r="164.141" style="fill:rgb(249,168,38);stroke:rgb(56,54,82);stroke-opacity:0;stroke-width:6.78px;"/>
            </g>
            <g transform="matrix(1,0,0,1,-226.948,40.6202)">
                <circle cx="1296.3" cy="553.957" r="164.141" style="fill:rgb(249,168,38);stroke:rgb(56,54,82);stroke-opacity:0;stroke-width:6.78px;"/>
            </g>
            <g transform="matrix(1,0,0,1,-506.603,33.0503)">
                <circle cx="1296.3" cy="553.957" r="164.141" style="fill:rgb(249,168,38);stroke:rgb(56,54,82);stroke-opacity:0;stroke-width:6.78px;"/>
            </g>
            <g transform="matrix(1,0,0,1,-0.704522,73.1475)">
                <path d="M978.65,1076.53C978.65,1076.53 987.191,1029.05 987.76,964.624C988.379,894.507 963.95,793.233 954.781,745.191C938.906,662.011 896.691,470.221 925.645,353.361" style="fill:none;stroke:rgb(56,54,82);stroke-width:6.78px;"/>
            </g>
            <g transform="matrix(1,0,0,1,6.84585,98.2895)">
                <path d="M909.26,462.841C934.044,430.293 968.259,414.831 984.332,410.731" style="fill:none;stroke:rgb(56,54,82);stroke-width:3.89px;"/>
            </g>
            <g transform="matrix(0.697747,0,0,0.653753,282.871,192.323)">
                <path d="M909.26,462.841C934.044,430.293 968.259,414.831 984.332,410.731" style="fill:none;stroke:rgb(56,54,82);stroke-width:5.75px;"/>
            </g>
            <g transform="matrix(1,0,0,1,16.1286,172.524)">
                <path d="M909.26,462.841C934.044,430.293 968.259,414.831 984.332,410.731" style="fill:none;stroke:rgb(56,54,82);stroke-width:3.89px;"/>
            </g>
            <g transform="matrix(-1.10822,0,0,1,1927.82,173.072)">
                <path d="M909.26,462.841C934.044,430.293 968.259,414.831 984.332,410.731" style="fill:none;stroke:rgb(56,54,82);stroke-width:3.68px;"/>
            </g>
            <g transform="matrix(-1.10822,0,0,1,1922.63,92.8409)">
                <path d="M909.26,462.841C934.044,430.293 968.259,414.831 984.332,410.731" style="fill:none;stroke:rgb(56,54,82);stroke-width:3.68px;"/>
            </g>
            <g transform="matrix(-0.777702,0,0,0.701756,1625.44,171.232)">
                <path d="M909.26,462.841C934.044,430.293 968.259,414.831 984.332,410.731" style="fill:none;stroke:rgb(56,54,82);stroke-width:5.25px;"/>
            </g>
            <g id="Layer5" transform="matrix(1,0,0,1,10.0646,59.7888)">
                <g transform="matrix(1,0,0,1,-7.20442,20.0642)">
                    <path d="M964.711,813.296C964.711,813.296 982.714,782.498 1027.04,769.243C1051.96,761.789 1081.06,760.68 1105.51,749.956C1134.62,737.187 1157.38,714.303 1161.81,699.623" style="fill:none;stroke:rgb(56,54,82);stroke-width:3.89px;"/>
                </g>
                <g transform="matrix(-0.826714,0,0,0.657406,1772.16,382.24)">
                    <path d="M964.711,813.296C964.711,813.296 982.714,782.498 1027.04,769.243C1051.96,761.789 1081.06,760.68 1105.51,749.956C1134.62,737.187 1157.38,714.303 1161.81,699.623" style="fill:none;stroke:rgb(56,54,82);stroke-width:5.2px;"/>
                </g>
            </g>
            <g id="Layer6" transform="matrix(1,0,0,1,10.0646,59.7888)">
                <g transform="matrix(0.778287,0.0561854,-0.0560363,0.776222,389.74,18.3837)">
                    <path d="M1068.93,829.23C1087.92,829.23 1114.63,838.699 1114.63,849.597C1114.63,860.495 1087.92,868.721 1068.93,868.721C1049.94,868.721 1034.53,859.874 1034.53,848.976C1034.53,838.078 1049.94,829.23 1068.93,829.23Z" style="fill:rgb(227,169,76);stroke:rgb(56,54,82);stroke-opacity:0;stroke-width:5px;"/>
                </g>
                <g transform="matrix(-0.544539,-0.39731,0.396256,-0.543094,1361.29,1619.33)">
                    <path d="M1068.93,829.23C1087.92,829.23 1114.63,838.699 1114.63,849.597C1114.63,860.495 1087.92,868.721 1068.93,868.721C1049.94,868.721 1034.53,859.874 1034.53,848.976C1034.53,838.078 1049.94,829.23 1068.93,829.23Z" style="fill:rgb(227,169,76);stroke:rgb(56,54,82);stroke-opacity:0;stroke-width:5.82px;"/>
                </g>
                <g transform="matrix(-0.470938,-0.482281,0.481002,-0.469688,1171.99,1668.25)">
                    <path d="M1068.93,829.23C1087.92,829.23 1114.63,838.699 1114.63,849.597C1114.63,860.495 1087.92,868.721 1068.93,868.721C1049.94,868.721 1034.53,859.874 1034.53,848.976C1034.53,838.078 1049.94,829.23 1068.93,829.23Z" style="fill:rgb(207,140,25);stroke:rgb(56,54,82);stroke-opacity:0;stroke-width:5.82px;"/>
                </g>
                <g transform="matrix(0.257191,0.623081,-0.621428,0.256509,1282.45,-72.4004)">
                    <path d="M1068.93,829.23C1087.92,829.23 1114.63,838.699 1114.63,849.597C1114.63,860.495 1087.92,868.721 1068.93,868.721C1049.94,868.721 1034.53,859.874 1034.53,848.976C1034.53,838.078 1049.94,829.23 1068.93,829.23Z" style="fill:rgb(207,140,25);stroke:rgb(56,54,82);stroke-opacity:0;stroke-width:5.81px;"/>
                </g>
                <g transform="matrix(0.211351,0.47988,-0.478607,0.21079,1303.83,85.0207)">
                    <path d="M1068.93,829.23C1087.92,829.23 1114.63,838.699 1114.63,849.597C1114.63,860.495 1087.92,868.721 1068.93,868.721C1049.94,868.721 1034.53,859.874 1034.53,848.976C1034.53,838.078 1049.94,829.23 1068.93,829.23Z" style="fill:rgb(207,140,25);stroke:rgb(56,54,82);stroke-opacity:0;stroke-width:7.47px;"/>
                </g>
                <g transform="matrix(0.0673996,-0.520011,0.518631,0.0672208,411.63,1367.43)">
                    <path d="M1068.93,829.23C1087.92,829.23 1114.63,838.699 1114.63,849.597C1114.63,860.495 1087.92,868.721 1068.93,868.721C1049.94,868.721 1034.53,859.874 1034.53,848.976C1034.53,838.078 1049.94,829.23 1068.93,829.23Z" style="fill:rgb(207,140,25);stroke:rgb(56,54,82);stroke-opacity:0;stroke-width:7.42px;"/>
                </g>
                <g transform="matrix(0.0673996,-0.520011,0.518631,0.0672208,385.21,1361.56)">
                    <path d="M1068.93,829.23C1087.92,829.23 1114.63,838.699 1114.63,849.597C1114.63,860.495 1087.92,868.721 1068.93,868.721C1049.94,868.721 1034.53,859.874 1034.53,848.976C1034.53,838.078 1049.94,829.23 1068.93,829.23Z" style="fill:rgb(207,140,25);stroke:rgb(56,54,82);stroke-opacity:0;stroke-width:7.42px;"/>
                </g>
                <g transform="matrix(-0.0543881,-0.521532,0.520149,-0.0542438,451.404,1450.38)">
                    <path d="M1068.93,829.23C1087.92,829.23 1114.63,838.699 1114.63,849.597C1114.63,860.495 1087.92,868.721 1068.93,868.721C1049.94,868.721 1034.53,859.874 1034.53,848.976C1034.53,838.078 1049.94,829.23 1068.93,829.23Z" style="fill:rgb(207,140,25);stroke:rgb(56,54,82);stroke-opacity:0;stroke-width:7.44px;"/>
                </g>
                <g transform="matrix(-0.295381,0.442314,-0.41813,-0.27923,1553.95,663.186)">
                    <path d="M1068.93,829.23C1087.92,829.23 1114.63,838.699 1114.63,849.597C1114.63,860.495 1087.92,868.721 1068.93,868.721C1049.94,868.721 1034.53,859.874 1034.53,848.976C1034.53,838.078 1049.94,829.23 1068.93,829.23Z" style="fill:rgb(227,169,76);stroke:rgb(56,54,82);stroke-opacity:0;stroke-width:7.47px;"/>
                </g>
                <g transform="matrix(-0.0896784,-0.524261,0.495596,-0.0847751,544.893,1492.54)">
                    <path d="M1068.93,829.23C1087.92,829.23 1114.63,838.699 1114.63,849.597C1114.63,860.495 1087.92,868.721 1068.93,868.721C1049.94,868.721 1034.53,859.874 1034.53,848.976C1034.53,838.078 1049.94,829.23 1068.93,829.23Z" style="fill:rgb(227,169,76);stroke:rgb(56,54,82);stroke-opacity:0;stroke-width:7.54px;"/>
                </g>
                <g transform="matrix(0.0863885,0.432126,-0.408499,0.0816651,1353.86,255.054)">
                    <path d="M1068.93,829.23C1087.92,829.23 1114.63,838.699 1114.63,849.597C1114.63,860.495 1087.92,868.721 1068.93,868.721C1049.94,868.721 1034.53,859.874 1034.53,848.976C1034.53,838.078 1049.94,829.23 1068.93,829.23Z" style="fill:rgb(227,169,76);stroke:rgb(56,54,82);stroke-opacity:0;stroke-width:9.1px;"/>
                </g>
                <g transform="matrix(0.153253,0.41317,-0.390579,0.144874,1241.05,228.691)">
                    <path d="M1068.93,829.23C1087.92,829.23 1114.63,838.699 1114.63,849.597C1114.63,860.495 1087.92,868.721 1068.93,868.721C1049.94,868.721 1034.53,859.874 1034.53,848.976C1034.53,838.078 1049.94,829.23 1068.93,829.23Z" style="fill:rgb(227,169,76);stroke:rgb(56,54,82);stroke-opacity:0;stroke-width:9.12px;"/>
                </g>
                <g transform="matrix(-0.328036,0.294259,-0.27817,-0.3101,1431.13,832.95)">
                    <path d="M1068.93,829.23C1087.92,829.23 1114.63,838.699 1114.63,849.597C1114.63,860.495 1087.92,868.721 1068.93,868.721C1049.94,868.721 1034.53,859.874 1034.53,848.976C1034.53,838.078 1049.94,829.23 1068.93,829.23Z" style="fill:rgb(227,169,76);stroke:rgb(56,54,82);stroke-opacity:0;stroke-width:9.01px;"/>
                </g>
                <g transform="matrix(-0.417173,0.141994,-0.13423,-0.394364,1370.83,1046.59)">
                    <path d="M1068.93,829.23C1087.92,829.23 1114.63,838.699 1114.63,849.597C1114.63,860.495 1087.92,868.721 1068.93,868.721C1049.94,868.721 1034.53,859.874 1034.53,848.976C1034.53,838.078 1049.94,829.23 1068.93,829.23Z" style="fill:rgb(227,169,76);stroke:rgb(56,54,82);stroke-opacity:0;stroke-width:9.03px;"/>
                </g>
                <g transform="matrix(-0.243593,-0.367231,0.347152,-0.230274,1004.39,1355.84)">
                    <path d="M1068.93,829.23C1087.92,829.23 1114.63,838.699 1114.63,849.597C1114.63,860.495 1087.92,868.721 1068.93,868.721C1049.94,868.721 1034.53,859.874 1034.53,848.976C1034.53,838.078 1049.94,829.23 1068.93,829.23Z" style="fill:rgb(227,169,76);stroke:rgb(56,54,82);stroke-opacity:0;stroke-width:9.13px;"/>
                </g>
                <g transform="matrix(-0.337003,-0.545481,0.468671,-0.376989,956.001,1679.31)">
                    <path d="M1068.93,829.23C1087.92,829.23 1114.63,838.699 1114.63,849.597C1114.63,860.495 1087.92,868.721 1068.93,868.721C1049.94,868.721 1034.53,859.874 1034.53,848.976C1034.53,838.078 1049.94,829.23 1068.93,829.23Z" style="fill:rgb(227,169,76);stroke:rgb(56,54,82);stroke-opacity:0;stroke-width:5.95px;"/>
                </g>
                <g transform="matrix(-0.391426,0.548784,-0.547328,-0.390387,1810.92,657.758)">
                    <path d="M1068.93,829.23C1087.92,829.23 1114.63,838.699 1114.63,849.597C1114.63,860.495 1087.92,868.721 1068.93,868.721C1049.94,868.721 1034.53,859.874 1034.53,848.976C1034.53,838.078 1049.94,829.23 1068.93,829.23Z" style="fill:rgb(227,169,76);stroke:rgb(56,54,82);stroke-opacity:0;stroke-width:5.74px;"/>
                </g>
            </g>
        </g>
        <g transform="matrix(1,0,0,1,5.684,4.15892)">
            <g transform="matrix(0.704528,0,0,0.703683,438.29,298.806)">
                <circle cx="1296.3" cy="553.957" r="164.141" style="fill:rgb(249,168,38);stroke:rgb(56,54,82);stroke-opacity:0;stroke-width:9.63px;"/>
            </g>
            <g transform="matrix(0.704528,0,0,0.703683,533.78,458.751)">
                <circle cx="1296.3" cy="553.957" r="164.141" style="fill:rgb(249,168,38);stroke:rgb(56,54,82);stroke-opacity:0;stroke-width:9.63px;"/>
            </g>
            <g transform="matrix(0.704528,0,0,0.703683,350.516,476.721)">
                <circle cx="1296.3" cy="553.957" r="164.141" style="fill:rgb(249,168,38);stroke:rgb(56,54,82);stroke-opacity:0;stroke-width:9.63px;"/>
            </g>
            <g transform="matrix(-0.607307,0,0,0.607307,1906.54,477.671)">
                <path d="M941.622,1124.22C941.622,1124.22 926.883,1067.5 937.873,982.193C947.636,906.407 922.692,824.184 913.523,776.142C897.647,692.962 910.547,565.079 939.501,448.219" style="fill:none;stroke:rgb(56,54,82);stroke-width:11.16px;"/>
            </g>
            <g transform="matrix(0.830821,0,0,1,601.747,431.433)">
                <path d="M909.26,462.841C934.044,430.293 968.259,414.831 984.332,410.731" style="fill:none;stroke:rgb(56,54,82);stroke-width:4.24px;"/>
            </g>
            <g transform="matrix(0.830821,0,0,1,599.261,378.679)">
                <path d="M909.26,462.841C934.044,430.293 968.259,414.831 984.332,410.731" style="fill:none;stroke:rgb(56,54,82);stroke-width:4.24px;"/>
            </g>
            <g transform="matrix(-0.775967,0,0,1,2061.27,383.809)">
                <path d="M909.26,462.841C934.044,430.293 968.259,414.831 984.332,410.731" style="fill:none;stroke:rgb(56,54,82);stroke-width:4.35px;"/>
            </g>
            <g transform="matrix(-0.775967,0,0,1,2061.24,427.219)">
                <path d="M909.26,462.841C934.044,430.293 968.259,414.831 984.332,410.731" style="fill:none;stroke:rgb(56,54,82);stroke-width:4.35px;"/>
            </g>
            <g transform="matrix(0.534427,0,0,0.643251,858.943,495.489)">
                <path d="M909.26,462.841C934.044,430.293 968.259,414.831 984.332,410.731" style="fill:none;stroke:rgb(56,54,82);stroke-width:6.59px;"/>
            </g>
            <g transform="matrix(-0.476326,0,0,0.643251,1775.2,493.117)">
                <path d="M909.26,462.841C934.044,430.293 968.259,414.831 984.332,410.731" style="fill:none;stroke:rgb(56,54,82);stroke-width:6.89px;"/>
            </g>
            <g transform="matrix(1,0,0,1,-5.684,-4.15892)">
                <path d="M1341.86,1040.57C1341.86,1040.57 1338.13,1021.98 1387.61,1027.8C1426.29,1032.35 1438.81,1006.06 1454.34,999.622" style="fill:none;stroke:rgb(56,54,82);stroke-width:3.84px;"/>
                <path d="M1341.93,1064.42C1341.93,1064.42 1322.38,1062.55 1309.41,1055.2C1296.44,1047.87 1266.59,1036.81 1257.46,1038.94" style="fill:none;stroke:rgb(56,54,82);stroke-width:3.84px;"/>
            </g>
            <g transform="matrix(1,0,0,1,-5.684,-4.15892)">
                <g transform="matrix(0.188729,-0.364146,0.36318,0.188228,809.008,1272.81)">
                    <path d="M1068.93,829.23C1087.92,829.23 1114.63,838.699 1114.63,849.597C1114.63,860.495 1087.92,868.721 1068.93,868.721C1049.94,868.721 1034.53,859.874 1034.53,848.976C1034.53,838.078 1049.94,829.23 1068.93,829.23Z" style="fill:rgb(227,169,76);stroke:rgb(56,54,82);stroke-opacity:0;stroke-width:9.44px;"/>
                </g>
                <g transform="matrix(0.158597,-0.306009,0.305197,0.158176,866.57,1227.11)">
                    <path d="M1068.93,829.23C1087.92,829.23 1114.63,838.699 1114.63,849.597C1114.63,860.495 1087.92,868.721 1068.93,868.721C1049.94,868.721 1034.53,859.874 1034.53,848.976C1034.53,838.078 1049.94,829.23 1068.93,829.23Z" style="fill:rgb(227,169,76);stroke:rgb(56,54,82);stroke-opacity:0;stroke-width:11.24px;"/>
                </g>
                <g transform="matrix(-0.0426803,-0.342013,0.341105,-0.042567,1026.93,1430.31)">
                    <path d="M1068.93,829.23C1087.92,829.23 1114.63,838.699 1114.63,849.597C1114.63,860.495 1087.92,868.721 1068.93,868.721C1049.94,868.721 1034.53,859.874 1034.53,848.976C1034.53,838.078 1049.94,829.23 1068.93,829.23Z" style="fill:rgb(227,169,76);stroke:rgb(56,54,82);stroke-opacity:0;stroke-width:11.32px;"/>
                </g>
                <g transform="matrix(0.0178379,-0.344204,0.34329,0.0177906,1080.31,1369.91)">
                    <path d="M1068.93,829.23C1087.92,829.23 1114.63,838.699 1114.63,849.597C1114.63,860.495 1087.92,868.721 1068.93,868.721C1049.94,868.721 1034.53,859.874 1034.53,848.976C1034.53,838.078 1049.94,829.23 1068.93,829.23Z" style="fill:rgb(227,169,76);stroke:rgb(56,54,82);stroke-opacity:0;stroke-width:11.3px;"/>
                </g>
                <g transform="matrix(0.291152,0.184459,-0.183969,0.290379,1289.93,578.771)">
                    <path d="M1068.93,829.23C1087.92,829.23 1114.63,838.699 1114.63,849.597C1114.63,860.495 1087.92,868.721 1068.93,868.721C1049.94,868.721 1034.53,859.874 1034.53,848.976C1034.53,838.078 1049.94,829.23 1068.93,829.23Z" style="fill:rgb(227,169,76);stroke:rgb(56,54,82);stroke-opacity:0;stroke-width:11.38px;"/>
                </g>
                <g transform="matrix(0.152391,0.250235,-0.249571,0.151987,1471.9,638.626)">
                    <path d="M1068.93,829.23C1087.92,829.23 1114.63,838.699 1114.63,849.597C1114.63,860.495 1087.92,868.721 1068.93,868.721C1049.94,868.721 1034.53,859.874 1034.53,848.976C1034.53,838.078 1049.94,829.23 1068.93,829.23Z" style="fill:rgb(227,169,76);stroke:rgb(56,54,82);stroke-opacity:0;stroke-width:13.38px;"/>
                </g>
                <g transform="matrix(-0.0829525,0.364924,-0.363956,-0.0827324,1796.16,722.806)">
                    <path d="M1068.93,829.23C1087.92,829.23 1114.63,838.699 1114.63,849.597C1114.63,860.495 1087.92,868.721 1068.93,868.721C1049.94,868.721 1034.53,859.874 1034.53,848.976C1034.53,838.078 1049.94,829.23 1068.93,829.23Z" style="fill:rgb(227,169,76);stroke:rgb(56,54,82);stroke-opacity:0;stroke-width:10.38px;"/>
                </g>
                <g transform="matrix(-0.0134594,0.373992,-0.372999,-0.0134237,1710.19,651.294)">
                    <path d="M1068.93,829.23C1087.92,829.23 1114.63,838.699 1114.63,849.597C1114.63,860.495 1087.92,868.721 1068.93,868.721C1049.94,868.721 1034.53,859.874 1034.53,848.976C1034.53,838.078 1049.94,829.23 1068.93,829.23Z" style="fill:rgb(207,140,25);stroke:rgb(56,54,82);stroke-opacity:0;stroke-width:10.41px;"/>
                </g>
                <g transform="matrix(-0.11505,-0.298524,0.297732,-0.114745,1283.94,1429.62)">
                    <path d="M1068.93,829.23C1087.92,829.23 1114.63,838.699 1114.63,849.597C1114.63,860.495 1087.92,868.721 1068.93,868.721C1049.94,868.721 1034.53,859.874 1034.53,848.976C1034.53,838.078 1049.94,829.23 1068.93,829.23Z" style="fill:rgb(207,140,25);stroke:rgb(56,54,82);stroke-opacity:0;stroke-width:12.24px;"/>
                </g>
                <g transform="matrix(-0.1352,0.289955,-0.289186,-0.134841,1663.02,857.596)">
                    <path d="M1068.93,829.23C1087.92,829.23 1114.63,838.699 1114.63,849.597C1114.63,860.495 1087.92,868.721 1068.93,868.721C1049.94,868.721 1034.53,859.874 1034.53,848.976C1034.53,838.078 1049.94,829.23 1068.93,829.23Z" style="fill:rgb(207,140,25);stroke:rgb(56,54,82);stroke-opacity:0;stroke-width:12.11px;"/>
                </g>
                <g transform="matrix(-0.247401,0.280791,-0.280046,-0.246745,1796.91,970.673)">
                    <path d="M1068.93,829.23C1087.92,829.23 1114.63,838.699 1114.63,849.597C1114.63,860.495 1087.92,868.721 1068.93,868.721C1049.94,868.721 1034.53,859.874 1034.53,848.976C1034.53,838.078 1049.94,829.23 1068.93,829.23Z" style="fill:rgb(227,169,76);stroke:rgb(56,54,82);stroke-opacity:0;stroke-width:10.34px;"/>
                </g>
                <g transform="matrix(0.00289643,-0.421528,0.420409,0.00288875,1077.98,1443.75)">
                    <path d="M1068.93,829.23C1087.92,829.23 1114.63,838.699 1114.63,849.597C1114.63,860.495 1087.92,868.721 1068.93,868.721C1049.94,868.721 1034.53,859.874 1034.53,848.976C1034.53,838.078 1049.94,829.23 1068.93,829.23Z" style="fill:rgb(227,169,76);stroke:rgb(56,54,82);stroke-opacity:0;stroke-width:9.24px;"/>
                </g>
                <g transform="matrix(-0.128953,-0.431107,0.429963,-0.128611,1139.09,1584.02)">
                    <path d="M1068.93,829.23C1087.92,829.23 1114.63,838.699 1114.63,849.597C1114.63,860.495 1087.92,868.721 1068.93,868.721C1049.94,868.721 1034.53,859.874 1034.53,848.976C1034.53,838.078 1049.94,829.23 1068.93,829.23Z" style="fill:rgb(227,169,76);stroke:rgb(56,54,82);stroke-opacity:0;stroke-width:8.69px;"/>
                </g>
            </g>
        </g>
        <g transform="matrix(1,0,0,1,-807.755,50.5093)">
            <g transform="matrix(0.704528,0,0,0.703683,438.29,298.806)">
                <circle cx="1296.3" cy="553.957" r="164.141" style="fill:rgb(249,168,38);stroke:rgb(56,54,82);stroke-opacity:0;stroke-width:9.63px;"/>
            </g>
            <g transform="matrix(0.704528,0,0,0.703683,533.78,458.751)">
                <circle cx="1296.3" cy="553.957" r="164.141" style="fill:rgb(249,168,38);stroke:rgb(56,54,82);stroke-opacity:0;stroke-width:9.63px;"/>
            </g>
            <g transform="matrix(0.704528,0,0,0.703683,350.516,476.721)">
                <circle cx="1296.3" cy="553.957" r="164.141" style="fill:rgb(249,168,38);stroke:rgb(56,54,82);stroke-opacity:0;stroke-width:9.63px;"/>
            </g>
            <g transform="matrix(-0.438678,0,0,0.674247,1758.07,402.671)">
                <path d="M880.44,1120.39C880.44,1120.39 916.956,1034.55 909.109,979.016C896.83,892.119 876.454,894.012 893.521,762.416C903.904,682.355 939.098,661.778 910.285,544.807" style="fill:none;stroke:rgb(56,54,82);stroke-width:11.95px;"/>
            </g>
            <g transform="matrix(-1.10822,0,0,1,2362.64,380.09)">
                <path d="M909.26,462.841C934.044,430.293 968.259,414.831 984.332,410.731" style="fill:none;stroke:rgb(56,54,82);stroke-width:3.68px;"/>
            </g>
            <g transform="matrix(-0.512573,0,0,0.462518,1821.77,584.104)">
                <path d="M909.26,462.841C934.044,430.293 968.259,414.831 984.332,410.731" style="fill:none;stroke:rgb(56,54,82);stroke-width:7.96px;"/>
            </g>
            <g transform="matrix(-1.10822,0,0,1,2368.51,431.097)">
                <path d="M909.26,462.841C934.044,430.293 968.259,414.831 984.332,410.731" style="fill:none;stroke:rgb(56,54,82);stroke-width:3.68px;"/>
            </g>
            <g transform="matrix(0.830821,0,0,1,600.912,378.641)">
                <path d="M909.26,462.841C934.044,430.293 968.259,414.831 984.332,410.731" style="fill:none;stroke:rgb(56,54,82);stroke-width:4.24px;"/>
            </g>
            <g transform="matrix(0.401975,0,0,0.483829,989.481,570.928)">
                <path d="M909.26,462.841C934.044,430.293 968.259,414.831 984.332,410.731" style="fill:none;stroke:rgb(56,54,82);stroke-width:8.76px;"/>
            </g>
            <g transform="matrix(0.830821,0,0,1,606.632,426.814)">
                <path d="M909.26,462.841C934.044,430.293 968.259,414.831 984.332,410.731" style="fill:none;stroke:rgb(56,54,82);stroke-width:4.24px;"/>
            </g>
            <g id="Layer4" transform="matrix(1,0,0,1,807.755,-50.5093)">
                <path d="M560.381,1051.35C560.381,1051.35 584.312,1042.31 604.337,1042.84C627.927,1043.46 666.314,1054.91 677.494,1038.5" style="fill:none;stroke:rgb(56,54,82);stroke-width:3.84px;"/>
                <path d="M551.673,1113.01C551.673,1113.01 517.323,1092.32 492.589,1097.75C467.523,1103.26 446.571,1097.43 439.986,1080.56" style="fill:none;stroke:rgb(56,54,82);stroke-width:3.84px;"/>
            </g>
            <g transform="matrix(1,0,0,1,807.663,-50.955)">
                <g transform="matrix(0.274714,0.426041,-0.42491,0.273985,655.89,372.89)">
                    <path d="M1068.93,829.23C1087.92,829.23 1114.63,838.699 1114.63,849.597C1114.63,860.495 1087.92,868.721 1068.93,868.721C1049.94,868.721 1034.53,859.874 1034.53,848.976C1034.53,838.078 1049.94,829.23 1068.93,829.23Z" style="fill:rgb(227,169,76);stroke:rgb(56,54,82);stroke-opacity:0;stroke-width:7.74px;"/>
                </g>
                <g transform="matrix(0.109545,0.41666,-0.415555,0.109255,853.759,519.078)">
                    <path d="M1068.93,829.23C1087.92,829.23 1114.63,838.699 1114.63,849.597C1114.63,860.495 1087.92,868.721 1068.93,868.721C1049.94,868.721 1034.53,859.874 1034.53,848.976C1034.53,838.078 1049.94,829.23 1068.93,829.23Z" style="fill:rgb(227,169,76);stroke:rgb(56,54,82);stroke-opacity:0;stroke-width:9.07px;"/>
                </g>
                <g transform="matrix(0.165424,0.291944,-0.291169,0.164986,745.275,602.726)">
                    <path d="M1068.93,829.23C1087.92,829.23 1114.63,838.699 1114.63,849.597C1114.63,860.495 1087.92,868.721 1068.93,868.721C1049.94,868.721 1034.53,859.874 1034.53,848.976C1034.53,838.078 1049.94,829.23 1068.93,829.23Z" style="fill:rgb(227,169,76);stroke:rgb(56,54,82);stroke-opacity:0;stroke-width:11.68px;"/>
                </g>
                <g transform="matrix(0.0109475,0.335375,-0.334485,0.0109184,925.629,691.332)">
                    <path d="M1068.93,829.23C1087.92,829.23 1114.63,838.699 1114.63,849.597C1114.63,860.495 1087.92,868.721 1068.93,868.721C1049.94,868.721 1034.53,859.874 1034.53,848.976C1034.53,838.078 1049.94,829.23 1068.93,829.23Z" style="fill:rgb(207,140,25);stroke:rgb(56,54,82);stroke-opacity:0;stroke-width:11.62px;"/>
                </g>
                <g transform="matrix(-0.0625374,-0.329675,0.3288,-0.0623715,416.872,1439.09)">
                    <path d="M1068.93,829.23C1087.92,829.23 1114.63,838.699 1114.63,849.597C1114.63,860.495 1087.92,868.721 1068.93,868.721C1049.94,868.721 1034.53,859.874 1034.53,848.976C1034.53,838.078 1049.94,829.23 1068.93,829.23Z" style="fill:rgb(207,140,25);stroke:rgb(56,54,82);stroke-opacity:0;stroke-width:11.64px;"/>
                </g>
                <g transform="matrix(-0.0625374,-0.329675,0.3288,-0.0623715,392.136,1435.24)">
                    <path d="M1068.93,829.23C1087.92,829.23 1114.63,838.699 1114.63,849.597C1114.63,860.495 1087.92,868.721 1068.93,868.721C1049.94,868.721 1034.53,859.874 1034.53,848.976C1034.53,838.078 1049.94,829.23 1068.93,829.23Z" style="fill:rgb(207,140,25);stroke:rgb(56,54,82);stroke-opacity:0;stroke-width:11.64px;"/>
                </g>
                <g transform="matrix(-0.0168669,-0.351251,0.350319,-0.0168222,367.791,1423.78)">
                    <path d="M1068.93,829.23C1087.92,829.23 1114.63,838.699 1114.63,849.597C1114.63,860.495 1087.92,868.721 1068.93,868.721C1049.94,868.721 1034.53,859.874 1034.53,848.976C1034.53,838.078 1049.94,829.23 1068.93,829.23Z" style="fill:rgb(227,169,76);stroke:rgb(56,54,82);stroke-opacity:0;stroke-width:11.09px;"/>
                </g>
                <g transform="matrix(-0.0940677,-0.338841,0.337942,-0.0938181,393.957,1472.87)">
                    <path d="M1068.93,829.23C1087.92,829.23 1114.63,838.699 1114.63,849.597C1114.63,860.495 1087.92,868.721 1068.93,868.721C1049.94,868.721 1034.53,859.874 1034.53,848.976C1034.53,838.078 1049.94,829.23 1068.93,829.23Z" style="fill:rgb(227,169,76);stroke:rgb(56,54,82);stroke-opacity:0;stroke-width:11.12px;"/>
                </g>
                <g transform="matrix(0.0914342,-0.339561,0.33866,0.0911916,137.799,1372.88)">
                    <path d="M1068.93,829.23C1087.92,829.23 1114.63,838.699 1114.63,849.597C1114.63,860.495 1087.92,868.721 1068.93,868.721C1049.94,868.721 1034.53,859.874 1034.53,848.976C1034.53,838.078 1049.94,829.23 1068.93,829.23Z" style="fill:rgb(227,169,76);stroke:rgb(56,54,82);stroke-opacity:0;stroke-width:11.04px;"/>
                </g>
                <g transform="matrix(0.0767791,-0.285136,0.284379,0.0765754,146.975,1328.11)">
                    <path d="M1068.93,829.23C1087.92,829.23 1114.63,838.699 1114.63,849.597C1114.63,860.495 1087.92,868.721 1068.93,868.721C1049.94,868.721 1034.53,859.874 1034.53,848.976C1034.53,838.078 1049.94,829.23 1068.93,829.23Z" style="fill:rgb(227,169,76);stroke:rgb(56,54,82);stroke-opacity:0;stroke-width:13.15px;"/>
                </g>
                <g transform="matrix(0.161838,-0.205233,0.204688,0.161409,104.22,1162.74)">
                    <path d="M1068.93,829.23C1087.92,829.23 1114.63,838.699 1114.63,849.597C1114.63,860.495 1087.92,868.721 1068.93,868.721C1049.94,868.721 1034.53,859.874 1034.53,848.976C1034.53,838.078 1049.94,829.23 1068.93,829.23Z" style="fill:rgb(227,169,76);stroke:rgb(56,54,82);stroke-opacity:0;stroke-width:14.8px;"/>
                </g>
                <g transform="matrix(-0.251763,0.176095,-0.175628,-0.251095,865.043,1127.42)">
                    <path d="M1068.93,829.23C1087.92,829.23 1114.63,838.699 1114.63,849.597C1114.63,860.495 1087.92,868.721 1068.93,868.721C1049.94,868.721 1034.53,859.874 1034.53,848.976C1034.53,838.078 1049.94,829.23 1068.93,829.23Z" style="fill:rgb(227,169,76);stroke:rgb(56,54,82);stroke-opacity:0;stroke-width:12.6px;"/>
                </g>
                <g transform="matrix(-0.156672,0.339748,-0.338847,-0.156256,933.97,882.224)">
                    <path d="M1068.93,829.23C1087.92,829.23 1114.63,838.699 1114.63,849.597C1114.63,860.495 1087.92,868.721 1068.93,868.721C1049.94,868.721 1034.53,859.874 1034.53,848.976C1034.53,838.078 1049.94,829.23 1068.93,829.23Z" style="fill:rgb(207,140,25);stroke:rgb(56,54,82);stroke-opacity:0;stroke-width:10.36px;"/>
                </g>
                <g transform="matrix(-0.156672,0.339748,-0.338847,-0.156256,984.137,887.263)">
                    <path d="M1068.93,829.23C1087.92,829.23 1114.63,838.699 1114.63,849.597C1114.63,860.495 1087.92,868.721 1068.93,868.721C1049.94,868.721 1034.53,859.874 1034.53,848.976C1034.53,838.078 1049.94,829.23 1068.93,829.23Z" style="fill:rgb(227,169,76);stroke:rgb(56,54,82);stroke-opacity:0;stroke-width:10.36px;"/>
                </g>
                <g transform="matrix(-0.0412635,0.294059,-0.293279,-0.041154,793.907,828.845)">
                    <path d="M1068.93,829.23C1087.92,829.23 1114.63,838.699 1114.63,849.597C1114.63,860.495 1087.92,868.721 1068.93,868.721C1049.94,868.721 1034.53,859.874 1034.53,848.976C1034.53,838.078 1049.94,829.23 1068.93,829.23Z" style="fill:rgb(227,169,76);stroke:rgb(56,54,82);stroke-opacity:0;stroke-width:13.09px;"/>
                </g>
                <g transform="matrix(0.14847,-0.257158,0.256475,0.148076,161.654,1244.36)">
                    <path d="M1068.93,829.23C1087.92,829.23 1114.63,838.699 1114.63,849.597C1114.63,860.495 1087.92,868.721 1068.93,868.721C1049.94,868.721 1034.53,859.874 1034.53,848.976C1034.53,838.078 1049.94,829.23 1068.93,829.23Z" style="fill:rgb(207,140,25);stroke:rgb(56,54,82);stroke-opacity:0;stroke-width:13.04px;"/>
                </g>
                <g transform="matrix(-0.0437939,-0.293693,0.292914,-0.0436777,291.036,1437.84)">
                    <path d="M1068.93,829.23C1087.92,829.23 1114.63,838.699 1114.63,849.597C1114.63,860.495 1087.92,868.721 1068.93,868.721C1049.94,868.721 1034.53,859.874 1034.53,848.976C1034.53,838.078 1049.94,829.23 1068.93,829.23Z" style="fill:rgb(227,169,76);stroke:rgb(56,54,82);stroke-opacity:0;stroke-width:13.15px;"/>
                </g>
            </g>
        </g>
        <g transform="matrix(1.33154,0,0,1,-140.238,79.9242)">
            <g id="Layer1">
                <path d="M366.541,1210.24C366.541,1210.24 587.05,971.086 819.458,961.634C1051.87,952.181 1291.8,1119.3 1336.67,1204.26C1381.54,1289.22 931.409,1237.41 849.825,1243.52C768.241,1249.62 297.273,1316.35 366.541,1210.24Z" style="fill:rgb(56,54,82);stroke:rgb(63,61,86);stroke-opacity:0;stroke-width:0.63px;"/>
            </g>
        </g>
    </g>
</svg>
