<?xml version="1.0" encoding="UTF-8" standalone="no"?>
<!DOCTYPE svg PUBLIC "-//W3C//DTD SVG 1.1//EN" "http://www.w3.org/Graphics/SVG/1.1/DTD/svg11.dtd">
<svg width="100%" height="100%" viewBox="0 0 400 500" version="1.1" xmlns="http://www.w3.org/2000/svg" xmlns:xlink="http://www.w3.org/1999/xlink" xml:space="preserve" xmlns:serif="http://www.serif.com/" style="fill-rule:evenodd;clip-rule:evenodd;stroke-linecap:round;stroke-linejoin:round;stroke-miterlimit:1.5;">
    <g id="Layer1">
        <g transform="matrix(2.055,0,0,2.055,-211.001,-199.107)">
            <path d="M199.423,336.769C150.497,334.736 124.604,296.208 120.234,258.671C115.847,220.988 143.511,185.529 166.995,155.347C190.479,125.166 200,100.296 200,100.296L200.028,100.368C200.608,101.853 210.254,126.107 233.005,155.347C256.489,185.529 284.153,220.988 279.766,258.671C275.379,296.355 249.299,335.037 200,336.791L199.423,336.769Z" style="fill:rgb(87,188,234);stroke:rgb(12,0,0);stroke-opacity:0;stroke-width:0.49px;"/>
        </g>
        <g transform="matrix(2.30557,0,0,2.30557,38.0448,-188.244)">
            <circle cx="99.103" cy="190.081" r="10.693" style="fill:rgb(9,49,68);"/>
        </g>
        <g transform="matrix(2.30557,0,0,2.30557,-87.8009,-188.244)">
            <circle cx="99.103" cy="190.081" r="10.693" style="fill:rgb(9,49,68);"/>
        </g>
        <g transform="matrix(1,0,0,1,-11.8994,0)">
            <path d="M303.086,346.948C303.086,344.187 300.847,341.948 298.086,341.948C272.703,341.948 158.316,341.948 132.933,341.948C130.171,341.948 127.933,344.187 127.933,346.948C127.933,350.865 127.933,356.288 127.933,360.205C127.933,362.966 130.171,365.205 132.933,365.205C158.316,365.205 272.703,365.205 298.086,365.205C300.847,365.205 303.086,362.966 303.086,360.205C303.086,356.288 303.086,350.865 303.086,346.948Z" style="fill:rgb(9,49,68);"/>
        </g>
    </g>
</svg>
