<?xml version="1.0" encoding="UTF-8" standalone="no"?>
<!DOCTYPE svg PUBLIC "-//W3C//DTD SVG 1.1//EN" "http://www.w3.org/Graphics/SVG/1.1/DTD/svg11.dtd">
<svg width="100%" height="100%" viewBox="0 0 400 500" version="1.1" xmlns="http://www.w3.org/2000/svg" xmlns:xlink="http://www.w3.org/1999/xlink" xml:space="preserve" xmlns:serif="http://www.serif.com/" style="fill-rule:evenodd;clip-rule:evenodd;stroke-linecap:round;stroke-linejoin:round;stroke-miterlimit:1.5;">
    <g id="Layer1">
        <g transform="matrix(2.055,0,0,2.055,-211.001,-199.107)">
            <path d="M199.423,336.769C150.497,334.736 124.604,296.208 120.234,258.671C115.847,220.988 143.511,185.529 166.995,155.347C190.479,125.166 200,100.296 200,100.296L200.028,100.368C200.608,101.853 210.254,126.107 233.005,155.347C256.489,185.529 284.153,220.988 279.766,258.671C275.379,296.355 249.299,335.037 200,336.791L199.423,336.769Z" style="fill:rgb(249,205,66);stroke:rgb(12,0,0);stroke-opacity:0;stroke-width:0.49px;"/>
        </g>
        <g transform="matrix(2.30557,0,0,2.30557,38.0448,-188.244)">
            <circle cx="99.103" cy="190.081" r="10.693" style="fill:rgb(9,49,68);"/>
        </g>
        <g transform="matrix(2.30557,0,0,2.30557,-87.8009,-188.244)">
            <circle cx="99.103" cy="190.081" r="10.693" style="fill:rgb(9,49,68);"/>
        </g>
        <g transform="matrix(1,0,0,0.82841,-11.8994,58.6749)">
            <path d="M290.12,340.615C248.213,310.832 182.985,305.881 125.012,349.245C124.778,349.42 124.556,349.618 124.349,349.837C93.874,382.104 94.886,386.277 122.252,376.341C122.255,376.34 122.259,376.338 122.263,376.336C175.572,345.793 237.988,345.218 310.446,379.395C334.318,390.655 326.656,366.582 290.12,340.615Z" style="fill:rgb(9,49,68);"/>
        </g>
    </g>
</svg>
